<?xml version="1.0" encoding="UTF-8"?>
<svg width="20px" height="20px" viewBox="0 0 20 20" version="1.1" xmlns="http://www.w3.org/2000/svg" xmlns:xlink="http://www.w3.org/1999/xlink">
    <!-- Generator: Sketch 48.2 (47327) - http://www.bohemiancoding.com/sketch -->
    <title>Icon add@</title>
    <desc>Created with Sketch.</desc>
    <defs></defs>
    <g id="Symbols" stroke="none" stroke-width="1" fill="none" fill-rule="evenodd">
        <g id="Icon-add">
            <g id="Icon-close">
                <rect id="Rectangle-9" stroke="#EFEFEF" stroke-width="1.5" x="0.75" y="0.75" width="18.5" height="18.4242424" rx="9.21212121"></rect>
                <path d="M13.7908478,6.20936649 C13.5116925,5.93021117 13.0596723,5.93021117 12.7808027,6.20936649 L10.0001071,8.99006206 L7.21941158,6.20936649 C6.94025626,5.93021117 6.48823608,5.93021117 6.20936649,6.20936649 C5.9304969,6.48852181 5.93021117,6.94054199 6.20936649,7.21941158 L8.99006206,10.0001071 L6.20936649,12.7808027 C5.93021117,13.059958 5.93021117,13.5119782 6.20936649,13.7908478 C6.34880129,13.9302826 6.53195232,14 6.7145319,14 C6.89768293,14 7.07997678,13.9302826 7.21969731,13.7908478 L10.0003929,11.0101522 L12.7810884,13.7908478 C12.9205232,13.9302826 13.1036743,14 13.2862539,14 C13.4694049,14 13.6516987,13.9302826 13.7914193,13.7908478 C14.0705746,13.5116925 14.0705746,13.0596723 13.7914193,12.7808027 L11.0107237,10.0001071 L13.7914193,7.21941158 C14.0700031,6.94054199 14.0700031,6.48852181 13.7908478,6.20936649 Z" id="Path" stroke="#979797" stroke-width="0.2" fill="#919191" transform="translate(10.000393, 10.000000) rotate(45.000000) translate(-10.000393, -10.000000) "></path>
            </g>
        </g>
    </g>
</svg>