<?xml version="1.0" encoding="UTF-8"?>
<svg width="280px" height="320px" viewBox="0 0 280 320" version="1.1" xmlns="http://www.w3.org/2000/svg" xmlns:xlink="http://www.w3.org/1999/xlink">
    <!-- Generator: Sketch 49 (51002) - http://www.bohemiancoding.com/sketch -->
    <title>all-shapes</title>
    <desc>Created with Sketch.</desc>
    <defs></defs>
    <g id="all-shapes" stroke="none" stroke-width="1" fill="none" fill-rule="evenodd">
        <g id="map" transform="translate(59.000000, 99.000000)">
            <path d="M124.162373,113.779457 C124.162373,113.779457 124.162373,113.779457 124.162373,113.779457 L126.32548,109.885863 C126.32548,109.885863 126.32548,109.669552 126.32548,109.669552 L124.811305,107.290134 L129.353831,104.045473 C129.353831,104.045473 129.353831,103.829162 129.353831,103.829162 L127.839656,101.449744 L128.055966,81.3328435 C128.055966,81.3328435 128.055966,81.3328435 128.055966,81.1165328 C128.055966,81.1165328 128.055966,81.1165328 127.839656,81.1165328 L127.407034,81.1165328 L131.300628,61.6485649 C131.300628,61.6485649 131.300628,61.6485649 131.300628,61.6485649 L130.435385,59.2691466 L130.002763,39.3685572 C130.002763,39.3685572 130.002763,39.3685572 130.002763,39.3685572 L128.488588,37.2054497 C128.488588,37.2054497 128.488588,37.2054497 128.272277,37.2054497 C128.272277,37.2054497 128.272277,37.2054497 128.055966,37.2054497 L126.10917,38.719625 L125.892859,37.2054497 L126.758102,34.3934099 C126.758102,34.3934099 126.758102,34.3934099 126.758102,34.3934099 L124.811305,25.9572905 L125.676548,21.8473862 L126.758102,20.3332109 C126.758102,20.3332109 126.758102,20.3332109 126.758102,20.1169001 L126.32548,17.0885496 L126.974413,14.7091313 C126.974413,14.7091313 126.974413,14.7091313 126.974413,14.4928205 L125.027616,10.1666054 L125.460237,5.62407961 C125.460237,5.62407961 125.460237,5.62407961 125.460237,5.62407961 L124.594994,3.89359357 L125.243927,2.37941829 C125.243927,2.37941829 125.243927,2.37941829 125.243927,2.37941829 L124.811305,0.216310754 C124.811305,0.216310754 124.811305,0 124.594994,0 L92.7973135,1.94679679 C92.7973135,1.94679679 92.7973135,1.94679679 92.7973135,1.94679679 L80.6839113,11.6807807 C80.6839113,11.6807807 80.6839113,11.6807807 80.6839113,11.6807807 L77.2229392,19.9005894 L70.0846843,25.0920475 C70.0846843,25.0920475 70.0846843,25.0920475 70.0846843,25.0920475 L68.7868198,26.6062228 C68.7868198,26.6062228 68.7868198,26.6062228 68.7868198,26.8225335 L69.2194413,28.7693303 C69.2194413,28.7693303 69.2194413,28.985641 69.4357521,28.985641 L72.0314811,28.985641 L73.1130349,30.0671948 L73.1130349,31.5813701 L72.0314811,32.4466131 L70.7336166,32.2303024 C70.7336166,32.2303024 70.5173058,32.2303024 70.5173058,32.2303024 L70.0846843,33.0955454 C70.0846843,33.0955454 70.0846843,33.0955454 70.0846843,33.0955454 L70.3009951,34.1770991 C70.3009951,34.1770991 70.3009951,34.1770991 70.3009951,34.1770991 L72.0314811,36.3402067 L72.8967241,39.8011787 L72.2477919,42.180597 L66.1910907,43.4784616 C66.1910907,43.4784616 66.1910907,43.4784616 66.1910907,43.4784616 L60.3507004,48.2372982 L56.8897283,49.7514734 L49.5351627,50.1840949 L48.2372982,49.9677842 C48.2372982,49.9677842 48.2372982,49.9677842 48.2372982,49.9677842 L44.3437046,51.2656487 L41.315354,48.8862304 C41.315354,48.8862304 41.315354,48.8862304 41.315354,48.8862304 L34.8260314,48.0209874 C34.8260314,48.0209874 34.8260314,48.0209874 34.8260314,48.0209874 L14.7091313,52.5635132 C14.7091313,52.5635132 14.7091313,52.5635132 14.7091313,52.5635132 C14.7091313,52.5635132 14.7091313,52.5635132 14.7091313,52.779824 L18.3864141,63.5953617 L13.8438883,67.9215768 C13.8438883,67.9215768 13.8438883,67.9215768 13.8438883,67.9215768 L12.5460237,70.0846843 L11.2481592,70.9499273 L9.95029469,71.1662381 C9.95029469,71.1662381 9.95029469,71.1662381 9.95029469,71.1662381 L0,79.169736 C0,79.169736 0,79.169736 0,79.3860467 L0,86.7406124 C0,86.7406124 0,86.7406124 0,86.9569231 C0,86.9569231 0,86.9569231 0.216310754,86.9569231 L89.1200307,84.7938156 L91.499449,85.8753694 L91.9320705,88.0384769 C91.9320705,88.0384769 91.9320705,88.0384769 92.1483812,88.2547877 L95.6093533,89.3363414 L95.1767318,90.2015844 C95.1767318,90.2015844 95.1767318,90.2015844 95.1767318,90.4178952 C95.1767318,90.4178952 95.1767318,90.4178952 95.1767318,90.4178952 L96.0419748,90.634206 L96.0419748,95.1767318 C96.0419748,95.1767318 96.0419748,95.1767318 96.0419748,95.1767318 L97.9887716,98.6377039 C97.9887716,98.6377039 97.9887716,98.6377039 97.9887716,98.6377039 L102.963919,99.9355684 L103.829162,101.449744 C103.829162,101.449744 103.829162,101.449744 103.829162,101.449744 L120.917712,110.967417 L118.754604,118.754604 C118.754604,118.754604 118.754604,118.970915 118.754604,118.970915 C118.754604,118.970915 118.754604,118.970915 118.754604,118.970915 C118.754604,118.970915 118.970915,118.970915 118.970915,118.970915 L121.999265,113.995767 L124.162373,113.779457 Z M162.016755,106.20858 L157.69054,105.992269 C157.69054,105.992269 157.69054,105.992269 157.69054,105.992269 L154.662189,107.722756 C154.662189,107.722756 154.662189,107.722756 154.662189,107.722756 L152.931703,109.453242 L150.768596,109.885863 L150.984906,109.02062 L155.311121,104.478094 C155.311121,104.478094 155.311121,104.478094 155.311121,104.478094 L156.176364,102.747608 C156.176364,102.747608 156.176364,102.531297 156.176364,102.531297 C156.176364,102.531297 155.960054,102.531297 155.960054,102.531297 L148.821799,108.587999 L130.651695,112.265281 C130.651695,112.265281 130.651695,112.265281 130.651695,112.265281 L124.378684,115.509943 C124.378684,115.509943 124.378684,115.509943 124.378684,115.509943 L123.29713,117.456739 L121.566644,118.321982 C121.566644,118.321982 121.566644,118.321982 121.566644,118.538293 L121.350333,121.350333 C121.350333,121.350333 121.350333,121.350333 121.350333,121.350333 L121.566644,121.782955 C121.566644,121.782955 121.566644,121.782955 121.782955,121.782955 C121.782955,121.782955 121.999265,121.782955 121.999265,121.566644 L122.215576,120.48509 L123.513441,120.052469 L123.729751,121.350333 C123.729751,121.350333 123.729751,121.566644 123.946062,121.566644 L125.460237,121.999265 C125.460237,121.999265 125.460237,121.999265 125.460237,121.999265 C125.460237,121.999265 125.460237,121.999265 125.460237,121.999265 L162.016755,106.857513 C162.016755,106.641202 162.016755,106.424891 162.016755,106.20858 C162.016755,106.424891 162.016755,106.20858 162.016755,106.20858 Z" id="Shape" fill="#B2B5B7" fill-rule="nonzero"></path>
            <circle id="Oval" fill="#E24000" cx="76.5" cy="35.5" r="19.5"></circle>
            <circle id="Oval-Copy" fill="#E24000" cx="133" cy="42" r="13"></circle>
            <circle id="Oval-Copy-2" fill="#E24000" cx="105.5" cy="68.5" r="9.5"></circle>
            <circle id="Oval-Copy-3" fill="#E24000" cx="120.5" cy="96.5" r="5.5"></circle>
        </g>
        <g id="dropdown" transform="translate(59.000000, 39.000000)">
            <rect id="Rectangle-2" stroke="#EFEFEF" stroke-width="5" fill="#FFFFFF" x="0" y="0" width="163" height="42"></rect>
            <polyline id="Path-2" stroke="#E24000" stroke-width="3" points="138 18 144.018009 23.5 145.604154 22.1384434 150.424779 18.0003909"></polyline>
            <path d="M20.5,21.5 L120.5,21.5" id="Line" stroke="#B2B5B7" stroke-width="4" stroke-linecap="square"></path>
        </g>
        <g id="share" transform="translate(39.000000, 252.000000)" fill="#919191">
            <path d="M149.94141,5.5452973 C150.055666,5.66616216 150.161949,5.79459459 150.258218,5.92735135 C150.526176,6.29794595 150.724436,6.7107027 150.848706,7.15654054 L150.008451,8.04518919 C149.829404,8.23481081 149.538758,8.23437838 149.36012,8.04518919 C149.31965,8.00259459 149.28797,7.95351351 149.265487,7.89967568 C149.253223,7.82464865 149.23728,7.74983784 149.21725,7.67891892 C149.127726,7.35589189 148.961351,7.05924324 148.735907,6.82075676 C148.647405,6.72713514 148.549706,6.64259459 148.445875,6.56843243 C147.690238,6.03459459 146.675432,6.14032432 146.032824,6.82010811 L142.437367,10.6233514 C141.692358,11.4114595 141.692563,12.6944865 142.437775,13.483027 C143.183193,14.2713514 144.395645,14.2713514 145.140449,13.4832432 L146.589588,11.9500541 L148.177713,12.820973 L146.346157,14.7584865 C144.936262,16.2499459 142.641554,16.2499459 141.231863,14.7584865 C139.821559,13.2668108 139.821764,10.8395676 141.231659,9.34810811 L144.826708,5.54508108 C145.214848,5.13448649 145.672686,4.82962162 146.186936,4.64064865 C146.620042,4.48108108 147.072566,4.40972973 147.532856,4.42983784 C148.331824,4.46443243 149.077242,4.76627027 149.689395,5.30356757 C149.774422,5.37751351 149.859245,5.45859459 149.94141,5.5452973 Z M155.789906,1.24194595 C157.199802,2.73340541 157.199802,5.16086486 155.789906,6.65210811 L152.239824,10.4077838 C151.851683,10.8185946 151.394254,11.123027 150.879391,11.3122162 C150.447102,11.4717838 149.994374,11.5429189 149.533675,11.5228108 C148.734911,11.4882162 147.989494,11.1861622 147.376932,10.6488649 C147.291905,10.576 147.2079,10.4944865 147.125734,10.4077838 C147.010048,10.2854054 146.904173,10.1576216 146.808927,10.0246486 C146.54056,9.6547027 146.3423,9.24302703 146.217621,8.79632432 L147.05808,7.90724324 C147.236719,7.71827027 147.527977,7.71827027 147.70682,7.90767568 C147.7524,7.95589189 147.786942,8.01318919 147.810856,8.07913514 C147.826185,8.12043243 147.835587,8.16540541 147.838653,8.21232432 L147.872991,8.35351351 C147.966602,8.64562162 148.124393,8.9132973 148.331237,9.13210811 C148.419535,9.22572973 148.51703,9.3107027 148.620656,9.38443243 C149.376293,9.91827027 150.391508,9.81210811 151.034116,9.13232432 L154.584199,5.37686486 C155.329411,4.58832432 155.329411,3.30616216 154.584199,2.51762162 C153.838781,1.72908108 152.626329,1.72864865 151.880707,2.51718919 L150.476535,4.00259459 L148.888205,3.13189189 L150.674999,1.24172973 C152.085099,-0.249945946 154.379807,-0.249945946 155.789906,1.24194595 Z" id="link" stroke="#919191" stroke-width="0.3" fill-rule="nonzero"></path>
            <path d="M89.1450778,0.444444444 C89.015806,0.444444444 88.9136638,0.574051282 88.9136638,0.735042735 L88.9136638,1.58867521 L98.9465801,10.1885538 L108.979496,1.58867521 L108.979496,0.735042735 C108.979496,0.574051282 108.877354,0.444444444 108.748082,0.444444444 L89.1450778,0.444444444 Z M88.9136638,2.66666667 L88.9136638,14.9171863 C88.9136638,15.0781778 89.0158083,15.2077846 89.1450829,15.2077846 L108.748521,15.2077846 C108.877795,15.2077846 108.97994,15.0781778 108.97994,14.9171863 L108.97994,2.66666667 L99.2230117,11.0304342 C99.0575303,11.1730438 98.8360732,11.1730438 98.6705919,11.0304342 L88.9136638,2.66666667 Z" id="email" fill-rule="nonzero"></path>
            <path d="M55.8581316,4.50849804 C55.8581316,9.84511267 51.9962221,16 44.934378,16 C42.7660012,16 40.7484985,15.3318465 39.049118,14.1862647 C39.3496966,14.2231793 39.6549536,14.2416365 39.9648887,14.2416365 C41.7636824,14.2416365 43.4186194,13.5968623 44.7332125,12.5128047 C43.052545,12.4808121 41.6350301,11.3130816 41.1461512,9.7085288 C41.3812341,9.75528724 41.6209953,9.77989695 41.8689434,9.77989695 C42.2186439,9.77989695 42.5578183,9.73067754 42.8806187,9.63839114 C41.1239294,9.26801507 39.8011494,7.63516112 39.8011494,5.67868953 L39.8011494,5.62700915 C40.3180979,5.92970853 40.9110683,6.11182035 41.5402952,6.1327386 C40.5099069,5.40798277 39.8315581,4.17134507 39.8315581,2.77105283 C39.8315581,2.0303007 40.0210279,1.33630701 40.3520153,0.739521649 C42.2455439,3.1832654 45.074726,4.79150965 48.2653041,4.96008613 C48.1998084,4.66476967 48.1658909,4.35591787 48.1658909,4.03968315 C48.1658909,1.80881335 49.8851541,0 52.0044091,0 C53.1096497,0 54.1072901,0.490963624 54.8066911,1.27601323 C55.681527,1.09513189 56.5037324,0.759209413 57.2452378,0.296546951 C56.9586939,1.23909867 56.3493496,2.0303007 55.5575529,2.53110821 C56.3341453,2.43266938 57.0733115,2.21610398 57.7621863,1.89494732 C57.2475769,2.70460663 56.5961282,3.41582712 55.8464359,3.9855418 C55.8534533,4.15904022 55.8581316,4.33253864 55.8581316,4.50849804 Z" id="twitter"></path>
            <path d="M7.89764048,2.656 L6.46619908,2.657 C5.34366768,2.657 5.12600494,3.218 5.12600494,4.041 L5.12600494,5.857 L7.80354174,5.857 L7.45471107,8.702 L5.12600494,8.702 L5.12600494,16 L2.33440908,16 L2.33440908,8.702 L0,8.702 L0,5.857 L2.33440908,5.857 L2.33440908,3.76 C2.33440908,1.325 3.74779112,0 5.81130989,0 C6.79982187,0 7.64956199,0.077 7.89764048,0.112 L7.89764048,2.656 Z" id="facebook"></path>
            <path d="M201.292308,5.64705882 L197.494505,5.64705882 L197.494505,0 L191.797802,0 L191.797802,5.64705882 L188,5.64705882 L194.646154,12.2352941 L201.292308,5.64705882 Z M188,14.1176471 L188,16 L201.292308,16 L201.292308,14.1176471 L188,14.1176471 Z" id="download" fill-rule="nonzero"></path>
        </g>
    </g>
</svg>