<svg width="24" height="24" viewBox="0 0 24 24" fill="none" xmlns="http://www.w3.org/2000/svg">
<g opacity="0.25">
<path d="M0 11.0684V6.82573L6.82573 0H11.0684L0 11.0684Z" fill="white"/>
<path d="M0 19.0684V14.8257L14.8257 0H19.0684L0 19.0684Z" fill="white"/>
<path d="M3.06846 24H0V22.8258L22.8258 0H24V3.06846L3.06846 24Z" fill="white"/>
<path d="M11.0684 24H6.82573L24 6.82573V11.0684L11.0684 24Z" fill="white"/>
<path d="M19.0684 24H14.8257L24 14.8257V19.0684L19.0684 24Z" fill="white"/>
<path d="M24 22.8257V24H22.8257L24 22.8257Z" fill="white"/>
<path d="M3.06837 0L0 3.06837V0H3.06837Z" fill="white"/>
</g>
<g opacity="0.25">
<path d="M7.06849 0H2.82585L0 2.82585V7.0685L7.06849 0Z" fill="#434878"/>
<path d="M0 15.0685V10.8259L10.8259 0H15.0685L0 15.0685Z" fill="#434878"/>
<path d="M0 23.0685V18.8259L18.8259 0H23.0685L0 23.0685Z" fill="#434878"/>
<path d="M7.06849 24H2.82585L24 2.82585V7.06849L7.06849 24Z" fill="#434878"/>
<path d="M15.0685 24H10.8259L24 10.8259V15.0685L15.0685 24Z" fill="#434878"/>
<path d="M23.0685 24H18.8259L24 18.8259V23.0685L23.0685 24Z" fill="#434878"/>
</g>
</svg>
