<?xml version="1.0" encoding="UTF-8"?>
<svg width="282px" height="20px" viewBox="0 0 282 20" version="1.1" xmlns="http://www.w3.org/2000/svg" xmlns:xlink="http://www.w3.org/1999/xlink">
    <g id="Page-1" stroke="none" stroke-width="1" fill="none" fill-rule="evenodd">
        <g id="eviction-lab-logo" fill-rule="nonzero">
            <path d="M3.29,13.12 C3.33198533,13.1047143 3.37801467,13.1047143 3.42,13.12 C3.7205745,13.238234 4.0376856,13.3090779 4.36,13.33 L4.58,13.33 C4.48374781,13.4828536 4.36585648,13.6209549 4.23,13.74 L3.69,13.74 L3.27,13.17 L3.27,13.17 M7.72,18.91 C7.72,18.56 7.39,18.35 7.22,18.23 L7.22,18.23 C7.17706626,18.2052148 7.15044148,18.1595723 7.15,18.11 L7.15,16.61 C6.90748288,15.4209486 6.06797171,14.4415189 4.93,14.02 C5.16041055,13.810605 5.28818976,13.5112366 5.28,13.2 C5.24047104,12.9609987 5.03222637,12.7867532 4.79,12.79 L4.39,12.79 C4.13939454,12.7647328 3.89362505,12.7041321 3.66,12.61 C3.48160928,12.5497955 3.28839072,12.5497955 3.11,12.61 C2.91175507,12.6740262 2.75707867,12.8305362 2.69539312,13.0295219 C2.63370756,13.2285075 2.672733,13.4450651 2.8,13.61 L3.1,14.03 C1.9770473,14.4509717 1.1521681,15.4234211 0.92,16.6 L0.92,18 C0.914821403,18.0481437 0.889358428,18.0917945 0.85,18.12 L0.79,18.12 C0.527994759,18.2560455 0.346145119,18.5084083 0.3,18.8 C0.282410752,18.9737647 0.336599776,19.1471695 0.45,19.28 C0.679727597,19.5071599 0.998389156,19.620706 1.32,19.59 L6.75,19.59 C7.06988599,19.631413 7.39010623,19.5159848 7.61,19.28 C7.72497983,19.1476076 7.78254844,18.9749018 7.77,18.8" id="Shape" fill="#DF4427"></path>
            <g id="_Group_" transform="translate(223.000000, 0.000000)" fill="#000000">
                <g id="_Group_2">
                    <polygon id="Shape" points="5.8 14.84 13 14.84 13 19.58 0.62 19.58 0.62 0.5 5.8 0.5"></polygon>
                </g>
                <g id="_Group_3" transform="translate(18.000000, 0.000000)">
                    <path d="M14,16 L7.49,16 L6.32,19.57 L0.59,19.57 L8,0.5 L13.53,0.5 L20.92,19.58 L15.19,19.58 L14,16 Z M12.69,11.91 L10.76,5.91 L8.76,11.91 L12.69,11.91 Z" id="Shape"></path>
                </g>
                <g id="_Group_4" transform="translate(43.000000, 0.000000)">
                    <path d="M15.4,14.16 C15.4,18.16 12.32,19.58 8.53,19.58 L0.11,19.58 L0.11,0.5 L8.51,0.5 C12.11,0.5 14.64,1.81 14.64,5.27 C14.7271702,7.25993016 13.3882656,9.03114571 11.45,9.49 L11.45,9.55 C13.5,9.9 15.4,11 15.4,14.16 Z M5.29,4.78 L5.29,8.05 L7.64,8.05 C8.83,8.05 9.64,7.53 9.64,6.36 C9.64,5.19 8.79,4.78 7.64,4.78 L5.29,4.78 Z M10.14,13.45 C10.14,12.11 9.24,11.65 7.69,11.65 L5.29,11.65 L5.29,15.3 L7.69,15.3 C9.24,15.3 10.14,14.78 10.14,13.45 L10.14,13.45 Z" id="Shape"></path>
                </g>
            </g>
            <g id="_Group_5" transform="translate(52.000000, 0.000000)" fill="#000000">
                <g id="_Group_6">
                    <polygon id="Shape" points="12.09 14.64 12.09 19.2 0 19.2 0 0.88 11.7 0.88 11.7 5.44 5 5.44 5 7.61 10.89 7.61 10.89 11.92 5 11.92 5 14.64"></polygon>
                </g>
                <g id="_Group_7" transform="translate(18.000000, 0.000000)">
                    <polygon id="Shape" points="12.69 19.2 7.22 19.2 0.1 0.88 6 0.88 9.93 13.23 10 13.23 13.93 0.88 19.81 0.88"></polygon>
                </g>
                <g id="_Group_8" transform="translate(44.000000, 0.000000)">
                    <polygon id="Shape" points="5.44 19.2 0.44 19.2 0.44 0.88 5.44 0.88"></polygon>
                </g>
                <g id="_Group_9" transform="translate(56.000000, 0.000000)">
                    <path d="M0.51,10 C0.51,3.93 4.9,0.45 10.58,0.45 C12.9920644,0.402329791 15.3599826,1.10083073 17.36,2.45 L14.74,6.71 C13.5933985,5.82383018 12.1890485,5.33581855 10.74,5.32 C8.04,5.32 5.74,6.94 5.74,9.98 C5.74,13.02 8.04,14.64 10.74,14.64 C12.1890485,14.6241815 13.5933985,14.1361698 14.74,13.25 L17.36,17.51 C15.3599826,18.8591693 12.9920644,19.5576702 10.58,19.51 C4.9,19.59 0.51,16.11 0.51,10 Z" id="Shape"></path>
                </g>
                <g id="_Group_10" transform="translate(78.000000, 0.000000)">
                    <polygon id="Shape" points="15 5.44 10.4 5.44 10.4 19.2 5.4 19.2 5.4 5.44 0.82 5.44 0.82 0.88 15 0.88"></polygon>
                </g>
                <g id="_Group_11" transform="translate(99.000000, 0.000000)">
                    <polygon id="Shape" points="5.75 19.2 0.75 19.2 0.75 0.88 5.75 0.88"></polygon>
                </g>
                <g id="_Group_12" transform="translate(110.000000, 0.000000)">
                    <path d="M20.28,10 C20.28,15.76 15.96,19.55 10.52,19.55 C5.08,19.55 0.76,15.76 0.76,10 C0.76,4.24 5.08,0.45 10.52,0.45 C15.96,0.45 20.28,4.28 20.28,10 Z M6,10 C5.92159491,11.6673762 6.76649708,13.2427704 8.19883365,14.0999183 C9.63117022,14.9570662 11.4188298,14.9570662 12.8511663,14.0999183 C14.2835029,13.2427704 15.1284051,11.6673762 15.05,10 C15.1284051,8.33262385 14.2835029,6.75722961 12.8511663,5.9000817 C11.4188298,5.04293379 9.63117022,5.04293379 8.19883365,5.9000817 C6.76649708,6.75722961 5.92159491,8.33262385 6,10 L6,10 Z" id="Shape"></path>
                </g>
                <g id="_Group_13" transform="translate(137.000000, 0.000000)">
                    <polygon id="Shape" points="17.87 19.2 14 19.2 5.36 9.36 5.31 9.36 5.31 19.2 0.31 19.2 0.31 0.88 4.18 0.88 12.82 10.72 12.87 10.72 12.87 0.88 17.87 0.88"></polygon>
                </g>
            </g>
            <rect id="Rectangle-path" fill="#DF4427" x="8.89" y="9.79" width="11.55" height="9.86"></rect>
            <rect id="Rectangle-path" fill="#DF4427" x="24.37" y="0.58" width="7.13" height="8.05"></rect>
            <rect id="Rectangle-path" fill="#DF4427" x="32.65" y="12.25" width="11.84" height="7.4"></rect>
            <path d="M32.65,5.63 L32.65,6.37 L38.58,6.37 L38.58,5.63 L32.65,5.63 Z M32.65,6.74 L32.65,11.12 C32.6543618,11.1567019 32.6832981,11.1856382 32.72,11.19 L38.51,11.19 C38.51,11.19 38.58,11.14 38.58,11.07 L38.58,6.74 L32.65,6.74 Z M34.95,7.48 L36.24,7.48 C36.31,7.48 36.36,7.48 36.36,7.55 L36.36,8.15 C36.3556382,8.18670194 36.3267019,8.21563825 36.29,8.22 L35,8.22 C34.9613401,8.22 34.93,8.18865993 34.93,8.15 L34.93,7.55 C34.9343618,7.51329806 34.9632981,7.48436175 35,7.48 L34.95,7.48 Z" id="Shape" fill="#DF4427"></path>
            <path d="M21.59,9.79 L21.59,19.65 L31.51,19.65 L31.51,9.79 L21.59,9.79 Z M28.59,14.58 L27.33,14.33 L27.33,17.33 C27.33,17.4459798 27.2359798,17.54 27.12,17.54 L26,17.54 C25.8840202,17.54 25.79,17.4459798 25.79,17.33 L25.79,14.33 L24.55,14.58 C24.4592795,14.6016834 24.3651289,14.5609283 24.3188511,14.4799422 C24.2725734,14.3989561 24.2852608,14.2971507 24.35,14.23 L26.35,12 C26.3915634,11.9559584 26.4494428,11.9309967 26.51,11.9309967 C26.5705572,11.9309967 26.6284366,11.9559584 26.67,12 L28.67,14.23 C28.7163832,14.2887069 28.7297506,14.3669628 28.7054849,14.4377377 C28.6812192,14.5085125 28.6226472,14.5621035 28.55,14.58 L28.59,14.58 Z" id="Shape" fill="#DF4427"></path>
            <rect id="Rectangle-path" fill="#DF4427" x="18.4" y="3.5" width="4.82" height="5.14"></rect>
        </g>
    </g>
</svg>