<svg xmlns="http://www.w3.org/2000/svg" width="188" height="179.6" viewBox="0 0 188 179.6"><defs><style>.cls-1{fill:#fff;}.cls-2{fill:#e24000;}</style></defs><title>eviction lab logo </title><g id="Condensed_Logo_for_Website_Footer_Transparent_White_No_Border_188x80" data-name="Condensed Logo for Website FooterTransparent White No Border 188x80"><g id="_Group_" data-name="&lt;Group&gt;"><path class="cls-1" d="M16.7,165.1H39.8v14.5H0V121.3H16.7Z"/></g><g id="_Group_2" data-name="&lt;Group&gt;"><path class="cls-1" d="M98.9,168.7H77.9l-3.8,10.9H55.8l23.8-58.3H97.3l23.8,58.3H102.7Zm-4.2-12.5-6.2-18.2-6.3,18.2Z"/></g><g id="_Group_3" data-name="&lt;Group&gt;"><path class="cls-1" d="M188,163c0,12.2-9.9,16.6-22.1,16.6H138.8V121.3h27c11.6,0,19.7,4,19.7,14.6,0,6.9-3.9,10.8-10.3,12.9v.2C181.9,150,188,153.4,188,163Zm-32.5-28.7v10H163c3.9,0,6.6-1.6,6.6-5.2s-2.7-4.8-6.6-4.8Zm15.6,26.5c0-4.1-2.9-5.5-7.9-5.5h-7.7v11.2h7.7C168.2,166.5,171.1,164.9,171.1,160.8Z"/></g><g id="_Group_4" data-name="&lt;Group&gt;"><g id="_Group_5" data-name="&lt;Group&gt;"><path class="cls-1" d="M14.7,92.2v5.6H0V75.4H14.3V81H6.1v2.6h7.2v5.3H6.1v3.3Z"/></g><g id="_Group_6" data-name="&lt;Group&gt;"><path class="cls-1" d="M37.5,97.7H30.8L22.1,75.4h7.2l4.8,15.1h.1L39,75.4h7.2Z"/></g><g id="_Group_7" data-name="&lt;Group&gt;"><path class="cls-1" d="M60.4,97.7H54.3V75.4h6.1Z"/></g><g id="_Group_8" data-name="&lt;Group&gt;"><path class="cls-1" d="M69,86.6c0-7.4,5.4-11.7,12.3-11.7a14.3,14.3,0,0,1,8.3,2.5l-3.2,5.2a8.1,8.1,0,0,0-4.9-1.7c-3.3,0-6.1,2-6.1,5.7s2.8,5.7,6.1,5.7a8.1,8.1,0,0,0,4.9-1.7l3.2,5.2a14.3,14.3,0,0,1-8.3,2.5C74.4,98.2,69,94,69,86.6Z"/></g><g id="_Group_9" data-name="&lt;Group&gt;"><path class="cls-1" d="M113.6,81H108V97.7h-6.1V81H96.3V75.4h17.3Z"/></g><g id="_Group_10" data-name="&lt;Group&gt;"><path class="cls-1" d="M128,97.7h-6.1V75.4H128Z"/></g><g id="_Group_11" data-name="&lt;Group&gt;"><path class="cls-1" d="M159.2,86.6c0,7-5.3,11.7-11.9,11.7s-11.9-4.6-11.9-11.7,5.3-11.7,11.9-11.7S159.2,79.5,159.2,86.6Zm-17.5,0a5.5,5.5,0,1,0,5.5-5.6A5.3,5.3,0,0,0,141.7,86.6Z"/></g><g id="_Group_12" data-name="&lt;Group&gt;"><path class="cls-1" d="M188,97.7h-4.7l-10.6-12h-.1v12h-6.1V75.4h4.7l10.6,12h.1v-12H188Z"/></g></g><rect class="cls-2" y="45.6" width="188" height="6.62"/><path class="cls-2" d="M55.1,22.5h.2a5.9,5.9,0,0,0,1.7.4h.4l-.6.7h-1l-.8-1h0m8,10.3a1.7,1.7,0,0,0-.9-1.2h-.1V28.7h0c-.3-2.5-2.5-4-4-4.7a2,2,0,0,0,.6-1.5.9.9,0,0,0-.9-.8H57l-1.3-.3a1.5,1.5,0,0,0-1,0,1.2,1.2,0,0,0-.6,1.8l.5.7c-1.4.7-3.7,2.1-3.9,4.6v2.9h-.1a1.7,1.7,0,0,0-.9,1.2,1.2,1.2,0,0,0,.3.9,1.9,1.9,0,0,0,1.5.6h9.8a1.9,1.9,0,0,0,1.5-.6,1.2,1.2,0,0,0,.3-.9"/><rect class="cls-2" x="65.1" y="16.5" width="20.7" height="17.72"/><rect class="cls-2" x="92.9" width="12.8" height="14.47"/><rect class="cls-2" x="107.8" y="21" width="21.3" height="13.29"/><path class="cls-2" d="M107.8,9.1v1.3h10.6V9.1Zm0,2v7.9h10.5c.1,0,.1-.1.1-.2V11.1H107.8Zm4.1,1.3h2.5v1.1h-2.7V12.5Z"/><path class="cls-2" d="M87.9,16.5V34.2h17.8V16.5Zm12.5,8.6-2.3-.4V30a.4.4,0,0,1-.4.4H95.9a.4.4,0,0,1-.4-.4V24.7l-2.2.4a.4.4,0,0,1-.4-.6l3.7-4a.4.4,0,0,1,.6,0l3.7,4A.4.4,0,0,1,100.4,25.1Z"/><rect class="cls-2" x="82.2" y="5.2" width="8.7" height="9.23"/></g></svg>