<?xml version="1.0" encoding="UTF-8"?>
<svg>
  <defs></defs>
    <polygon id="arrow-down" points="18.8743237 0 22 3.62676411 10.6828079 14 0 3.57495046 3.2339044 0.0505492411 10.7824379 7.41694926"></polygon>
    <polygon id="arrow-left" points="13.728247 19.005833 10.828831 21.8341404 0 10.597919 10.8742428 0 13.6841746 2.91829376 5.71194086 10.6879462"></polygon>
    <polygon id="arrow-right" points="0 19.005833 8.01630614 10.6879462 0.0440724007 2.91829376 2.85400416 0 13.728247 10.597919 2.89941596 21.8341404"></polygon>
    <polygon id="arrow-up" points="18.8743237 14 10.7824379 6.58305074 3.2339044 13.9494508 0 10.4250495 10.6828079 0 22 10.3732359"></polygon>
    <g id="add-circle">
      <path d="M10,10 L10,6 L12,6 L12,10 L16,10 L16,12 L12,12 L12,16 L10,16 L10,12 L6,12 L6,10 L10,10 Z" fill="#B2B5B7"></path>
      <path d="M11,22 C4.92486775,22 0,17.0751322 0,11 C0,4.92486775 4.92486775,0 11,0 C17.0751322,0 22,4.92486775 22,11 C22,17.0751322 17.0751322,22 11,22 Z M11,20.3076923 C16.1404965,20.3076923 20.3076923,16.1404965 20.3076923,11 C20.3076923,5.85950348 16.1404965,1.69230769 11,1.69230769 C5.85950348,1.69230769 1.69230769,5.85950348 1.69230769,11 C1.69230769,16.1404965 5.85950348,20.3076923 11,20.3076923 Z" id="Oval-2" fill="#EEF2F5" fill-rule="nonzero"></path>
    </g>
    <g id="close-circle">
      <polygon fill="#B2B5B7" points="11 9.58578644 13.8284271 6.75735931 15.2426407 8.17157288 12.4142136 11 15.2426407 13.8284271 13.8284271 15.2426407 11 12.4142136 8.17157288 15.2426407 6.75735931 13.8284271 9.58578644 11 6.75735931 8.17157288 8.17157288 6.75735931 11 9.58578644"></polygon>
      <path d="M11,22 C4.92486775,22 0,17.0751322 0,11 C0,4.92486775 4.92486775,0 11,0 C17.0751322,0 22,4.92486775 22,11 C22,17.0751322 17.0751322,22 11,22 Z M11,20.3076923 C16.1404965,20.3076923 20.3076923,16.1404965 20.3076923,11 C20.3076923,5.85950348 16.1404965,1.69230769 11,1.69230769 C5.85950348,1.69230769 1.69230769,5.85950348 1.69230769,11 C1.69230769,16.1404965 5.85950348,20.3076923 11,20.3076923 Z" id="Oval-2" fill="#EEF2F5" fill-rule="nonzero"></path>
    </g>
    <g id="geolocate">
      <ellipse fill="#666666" cx="11.0344828" cy="11" rx="5.51724138" ry="5.5"></ellipse>
      <path d="M2.61064081,9.625 C3.19667682,6.02193919 6.0478813,3.17917494 9.65517241,2.60578908 L9.65517241,0 L12.4137931,0 L12.4137931,2.61704287 C15.9884156,3.2154873 18.8070629,6.04493162 19.3893592,9.625 L22.0689655,9.625 L22.0689655,12.375 L19.3893592,12.375 C18.8070629,15.9550684 15.9884156,18.7845127 12.4137931,19.3829571 L12.4137931,22 L9.65517241,22 L9.65517241,19.3942109 C6.0478813,18.8208251 3.19667682,15.9780608 2.61064081,12.375 L0,12.375 L0,9.625 L2.61064081,9.625 Z M11,18.1923077 C14.9722019,18.1923077 18.1923077,14.9722019 18.1923077,11 C18.1923077,7.02779815 14.9722019,3.80769231 11,3.80769231 C7.02779815,3.80769231 3.80769231,7.02779815 3.80769231,11 C3.80769231,14.9722019 7.02779815,18.1923077 11,18.1923077 Z" id="Combined-Shape" fill="#D1D1D1"></path>
    </g>
    <path id="github" d="M21.5244239,5.61587703 C20.5407734,3.88824714 19.2065143,2.52048015 17.5212954,1.51226752 C15.8358257,0.504003468 13.9957952,0 11.9998997,0 C10.004255,0 8.16362252,0.504157739 6.47850397,1.51226752 C4.79313459,2.52042873 3.45892563,3.88824714 2.47527511,5.61587703 C1.49177509,7.34345549 1,9.22998454 1,11.2754128 C1,13.7324361 1.6993109,15.9418544 3.09828387,17.9042334 C4.49710635,19.8667666 6.3041779,21.2247631 8.51934803,21.9783771 C8.77720011,22.0274353 8.96808089,21.99293 9.09219101,21.8757355 C9.21635131,21.7583866 9.2783562,21.6114178 9.2783562,21.4354459 C9.2783562,21.406083 9.27589808,21.1419196 9.27113233,20.6426471 C9.26621609,20.1433746 9.26390846,19.7078161 9.26390846,19.3361771 L8.93446982,19.3945944 C8.72442572,19.4340364 8.45945009,19.4507491 8.13954294,19.4460181 C7.81978629,19.4414414 7.48783936,19.4070904 7.14415363,19.3432222 C6.80031741,19.2799196 6.4805106,19.133105 6.18448236,18.9030869 C5.88860462,18.6730688 5.67856052,18.3719832 5.55440022,18.0002928 L5.41117693,17.6624393 C5.31571146,17.4375121 5.1654148,17.1876444 4.96008629,16.9137619 C4.75475777,16.6396223 4.54712162,16.4537771 4.33707752,16.3559179 L4.23679614,16.2823306 C4.16997533,16.2334267 4.10797043,16.1744437 4.05063095,16.1059988 C3.99334163,16.0375539 3.9504499,15.9690575 3.92180524,15.9004584 C3.89311041,15.8318078 3.91688899,15.7754988 3.9933918,15.7313259 C4.06989461,15.6871529 4.20815148,15.6657093 4.40876442,15.6657093 L4.69511066,15.7095737 C4.88609177,15.7488099 5.1223224,15.8660045 5.40410356,16.0618773 C5.68573422,16.2575958 5.91724927,16.5120402 6.09869888,16.8251075 C6.31842498,17.2265207 6.58314977,17.5323888 6.89362575,17.7428659 C7.20385091,17.953343 7.51663451,18.0584016 7.83167558,18.0584016 C8.14671665,18.0584016 8.41881581,18.0339239 8.64807341,17.9852257 C8.87708017,17.9362704 9.09194018,17.8626831 9.29255312,17.7648752 C9.37848709,17.1088119 9.61246027,16.6048085 9.99427198,16.2525049 C9.45007365,16.1938819 8.96080685,16.1055874 8.52622074,15.9881872 C8.09188546,15.8706326 7.64305227,15.6798508 7.18002216,15.4153274 C6.71674123,15.151164 6.33242123,14.8231323 6.02696182,14.4317981 C5.72145225,14.0402582 5.47072371,13.5262271 5.27512735,12.8901677 C5.07943066,12.2538511 4.98155724,11.5198295 4.98155724,10.6878972 C4.98155724,9.50335282 5.35880387,8.49534588 6.11314663,7.66331077 C5.75977891,6.77275551 5.79313915,5.77441623 6.21332768,4.66839576 C6.49024276,4.58020415 6.90089979,4.64638643 7.44509812,4.86653119 C7.98939678,5.08677881 8.3879137,5.27545228 8.6410502,5.43188311 C8.8941867,5.58826251 9.09700693,5.72078133 9.24981188,5.82825682 C10.1379969,5.57386388 11.0545758,5.44664171 11.9997993,5.44664171 C12.9450229,5.44664171 13.8618024,5.57386388 14.7500376,5.82825682 L15.2942861,5.47605605 C15.666466,5.24104984 16.1059684,5.02568748 16.6117397,4.82991753 C17.117812,4.63425044 17.5047908,4.58035843 17.7722747,4.66855003 C18.2017941,5.77462192 18.2400706,6.77290979 17.8866025,7.66346504 C18.6408951,8.49550015 19.0182923,9.50376421 19.0182923,10.6880515 C19.0182923,11.5199838 18.9200677,12.2563194 18.724672,12.8975213 C18.5290255,13.538826 18.2761398,14.0523428 17.9659146,14.4391517 C17.6553383,14.8259092 17.2685602,15.1513696 16.8055301,15.4154817 C16.3423997,15.6797994 15.893416,15.8705812 15.4590807,15.9881357 C15.0245447,16.1056903 14.5352779,16.1940361 13.9910796,16.252762 C14.4874198,16.6930515 14.73564,17.3880425 14.73564,18.3374265 L14.73564,21.4350346 C14.73564,21.6110064 14.7953373,21.7579238 14.9148322,21.8753241 C15.0341766,21.9925187 15.2226494,22.0270239 15.4805015,21.9779143 C17.6959726,21.2244032 19.5030442,19.8663553 20.9018165,17.903822 C22.3004383,15.941443 23,13.7320247 23,11.2750014 C22.9994983,9.22983027 22.5074724,7.34345549 21.5244239,5.61587703 Z"></path>
    <path id="help" d="M7,21 C5.58823236,21 4.44270356,19.8517936 4.44270356,18.4367262 C4.44270356,17.0216587 5.58823236,15.8734523 7,15.8734523 C8.41176764,15.8734523 9.55729644,17.0216587 9.55729644,18.4367262 C9.55729644,19.8517936 8.41176764,21 7,21 Z M10.1815758,11.2069456 C9.15096191,12.1603853 8.86875573,12.5251939 8.86875573,12.9155254 L8.86875573,13.4083489 L5.13124427,13.4083489 L5.13124427,12.9155254 C5.13124427,11.383014 5.79706259,10.2380201 7.10425623,8.96449077 C7.25712546,8.81555839 7.37642392,8.70353896 7.64549936,8.45400956 C8.92976754,7.26501672 9.26248853,6.79204472 9.26248853,6.01402435 C9.26248853,4.76373216 8.24737658,3.7462475 7,3.7462475 C5.75262342,3.7462475 4.73751147,4.76373216 4.73751147,6.01402435 L4.73751147,6.5068479 L1,6.5068479 L1,6.01402435 C1,2.69690318 3.69061416,0 7,0 C10.3093858,0 13,2.69690318 13,6.01402435 C13,7.86514614 12.2560065,9.1989515 10.789814,10.6327533 C10.6178003,10.8009669 10.4818783,10.9286651 10.1815758,11.2069456 Z"></path>
    <path id="hint" d="M12,22 C5.92486775,22 1,17.0751322 1,11 C1,4.92486775 5.92486775,0 12,0 C18.0751322,0 23,4.92486775 23,11 C23,17.0751322 18.0751322,22 12,22 Z M12,17.5673527 C12.9411784,17.5673527 13.7048643,16.8036669 13.7048643,15.8624884 C13.7048643,14.92131 12.9411784,14.1576241 12,14.1576241 C11.0588216,14.1576241 10.2951357,14.92131 10.2951357,15.8624884 C10.2951357,16.8036669 11.0588216,17.5673527 12,17.5673527 Z M13.891511,11.6811805 C14.0842051,11.5053472 14.1714217,11.4246603 14.2817972,11.3183734 C15.222604,10.4124166 15.6999998,9.56964306 15.6999998,8.39999986 C15.6999998,6.30405552 13.9735224,4.5999999 11.8499999,4.5999999 C9.72647738,4.5999999 8,6.30405552 8,8.39999986 L8,8.71139358 L10.3982365,8.71139358 L10.3982365,8.39999986 C10.3982365,7.6099947 11.0495999,6.96709047 11.8499999,6.96709047 C12.6503999,6.96709047 13.3017633,7.6099947 13.3017633,8.39999986 C13.3017633,8.89159703 13.0882674,9.19044743 12.2641953,9.9417202 C12.0915386,10.099387 12.0149887,10.1701672 11.9168976,10.264271 C11.0781151,11.0689587 10.6508817,11.7924305 10.6508817,12.7607576 L10.6508817,13.0721514 L13.0491181,13.0721514 L13.0491181,12.7607576 C13.0491181,12.5141242 13.2302004,12.2836176 13.891511,11.6811805 Z"></path>
    <path id="info" d="M12,22 C5.92486775,22 1,17.0751322 1,11 C1,4.92486775 5.92486775,0 12,0 C18.0751322,0 23,4.92486775 23,11 C23,17.0751322 18.0751322,22 12,22 Z M11.89,7.77999997 C12.65728,7.77999997 13.28,7.15727998 13.28,6.38999999 C13.28,5.62271999 12.65728,5 11.89,5 C11.12272,5 10.5,5.62271999 10.5,6.38999999 C10.5,7.15727998 11.12272,7.77999997 11.89,7.77999997 Z M10.5,9.47999954 L10.5,16.9799995 L13.28,16.9799995 L13.28,9.47999954 L10.5,9.47999954 Z"></path>
    <path id="home" d="M14.125,21 L14.125,15 L9.875,15 L9.875,21 L1,21 L1,10.5 L12,0 L23,10.5 L23,21 L14.125,21 Z"></path>
    <path id="link" d="M13.3019234,6.88367322 C13.4458289,7.03711265 13.5796944,7.2001592 13.7009457,7.36869554 C14.0384414,7.83916995 14.2881522,8.36316973 14.4446719,8.92916636 L13.3863617,10.0573168 C13.1608497,10.2980438 12.7947789,10.2974948 12.5697817,10.0573168 C12.5188098,10.0032424 12.4789076,9.94093337 12.4505899,9.87258557 C12.4351439,9.77733783 12.415064,9.68236459 12.3898355,9.59233215 C12.2770795,9.18224536 12.0675284,8.80564624 11.783579,8.50288471 C11.6721102,8.38403091 11.5490568,8.27670565 11.4182805,8.18255587 C10.4665478,7.50484216 9.18838912,7.63906736 8.37901733,8.50206124 L3.85049982,13.3303254 C2.91215371,14.3308383 2.91241115,15.959657 3.85101469,16.9607189 C4.78987566,17.9615063 6.3169728,17.9615063 7.25506148,16.9609934 L9.08026693,15.0145908 L11.0805274,16.1202331 L8.77366331,18.5799304 C6.99788514,20.4733565 4.10767616,20.4733565 2.33215542,18.5799304 C0.555862382,16.6862297 0.556119816,13.6048145 2.33189799,11.7113884 L6.85990063,6.88339873 C7.34876737,6.36214383 7.92541902,5.97511413 8.5731224,5.73521061 C9.11862456,5.53263762 9.68858294,5.4420562 10.2683238,5.46758369 C11.2746324,5.51150195 12.2134934,5.89468881 12.9845075,6.57679435 C13.0916,6.67066963 13.198435,6.77360307 13.3019234,6.88367322 Z M20.6681664,1.42051566 C22.4439445,3.31394182 22.4439445,6.39563151 20.6681664,8.28878317 L16.1967992,13.0566597 C15.7079324,13.5781891 15.1317956,13.9646698 14.48332,14.2048478 C13.9388475,14.4074208 13.3686317,14.4977277 12.788376,14.4722003 C11.7823248,14.428282 10.8434638,14.0448206 10.0719348,13.3627151 C9.96484236,13.2702123 9.85903708,13.1667299 9.7555487,13.0566597 C9.60984119,12.9012988 9.47649049,12.7390758 9.35652635,12.5702649 C9.01851581,12.100614 8.76880505,11.5779867 8.61177045,11.0108921 L9.67033812,9.88219269 C9.89533524,9.64228917 10.2621784,9.64228917 10.4874329,9.88274167 C10.5448407,9.94395275 10.588347,10.0166924 10.6184667,10.1004116 C10.6377742,10.152839 10.6496162,10.2099327 10.6534777,10.2694969 L10.6967266,10.4487383 C10.8146312,10.8195731 11.0133701,11.1593907 11.2738931,11.4371737 C11.3851045,11.5560275 11.5079004,11.6639018 11.6384193,11.7575026 C12.590152,12.4352163 13.8688255,12.3004421 14.6781973,11.4374482 L19.1495645,6.66984617 C20.0881681,5.66878424 20.0881681,4.04106358 19.1495645,3.04000165 C18.2107036,2.03893972 16.6836064,2.03839074 15.744488,3.03945267 L13.975918,4.92519313 L11.9754001,3.81982532 L14.2258862,1.42024117 C16.0019218,-0.473459471 18.8921308,-0.473459471 20.6681664,1.42051566 Z"></path>
    <path id="email" d="M1.25371463,0 C1.11198538,0 1,0.139590983 1,0.312984267 L1,1.23237555 L11.999757,10.4947381 L22.9995139,1.23237555 L22.9995139,0.312984267 C22.9995139,0.139590983 22.8875285,0 22.7457993,0 L1.25371463,0 Z M23,15.5876365 L23,16 L1,16 L1,15.5876365 L1,2.3934091 L11.6971726,11.4014719 C11.8786009,11.5550673 12.1213991,11.5550673 12.3028274,11.4014719 L23,2.3934091 L23,15.5876365 Z"></path>
    <path id="map" d="M1,2.3715415 L7.50175606,0 L7.50175606,18.6284585 L1,21 L1,2.3715415 Z M9.21898391,0 L15.2129627,2.34554576 L15.2129627,20.9635147 L9.21898391,18.617969 L9.21898391,0 Z M17.0060212,2.34554576 L23,0 L23,18.6184251 L17.0060212,20.9639708 L17.0060212,2.34554576 Z"></path>
    <path id="menu" d="M1,0 L23,0 L23,4 L1,4 L1,0 Z M1,9 L23,9 L23,13 L1,13 L1,9 Z M1,18 L23,18 L23,22 L1,22 L1,18 Z"></path>
    <path id="marker" d="M14.480823,13.1487115 L8.50062321,22 L2.51083346,13.1348618 C0.24455612,10.0378937 0.569306383,4.9501452 3.20654006,2.24766972 C4.6206204,0.798367281 6.50068468,0 8.50062321,0 C10.5005617,0 12.380626,0.798367281 13.7951423,2.24766972 C16.4323759,4.9501452 16.7571262,10.0378937 14.480823,13.1487115 Z M8.47580645,10.865406 C10.27675,10.865406 11.7419355,9.38337931 11.7419355,7.56173526 C11.7419355,5.74009121 10.27675,4.25806452 8.47580645,4.25806452 C6.6748629,4.25806452 5.20967742,5.74009121 5.20967742,7.56173526 C5.20967742,9.38337931 6.6748629,10.865406 8.47580645,10.865406 Z"></path>
    <path id="search" d="M14.2649728,8.60332164 C14.2649728,6.07501748 12.1694523,3.98690515 9.54166502,3.98690515 C6.9138777,3.98690515 4.8183572,6.07501748 4.8183572,8.60332164 C4.8183572,11.1316258 6.9138777,13.2197381 9.54166502,13.2197381 C12.1694523,13.2197381 14.2649728,11.1316258 14.2649728,8.60332164 Z M16.8887645,12.9960138 L22.1385287,18.2384758 L19.4405917,20.94051 L14.2652051,15.772322 C12.9100298,16.6793745 11.2846111,17.2066433 9.54166502,17.2066433 C4.8439425,17.2066433 1,13.37629 1,8.60332164 C1,3.83035324 4.8439425,0 9.54166502,0 C14.2393875,0 18.08333,3.83035324 18.08333,8.60332164 C18.08333,10.211352 17.647027,11.7123916 16.8887645,12.9960138 Z"></path>
    <path id="plus" d="M9,8 L9,0 L14.6900001,0 L14.6900001,8 L23,8 L23,13.6700001 L14.6900001,13.6700001 L14.6900001,22 L9,22 L9,13.6700001 L1,13.6700001 L1,8 L9,8 Z"></path>
    <rect id="minus" x="1" y="0" width="22" height="6"></rect>
    <path id="twitter" d="M22,2 C21.2270554,2.35 20.3938815,2.58 19.5305927,2.69 C20.4139579,2.16 21.0965583,1.32 21.417782,0.31 C20.584608,0.81 19.6610899,1.16 18.6873805,1.36 C17.8943595,0.5 16.7801147,0 15.5152964,0 C13.1563098,0 11.2289675,1.92 11.2289675,4.29 C11.2289675,4.63 11.2691205,4.96 11.3393881,5.27 C7.76577438,5.09 4.58365201,3.38 2.46558317,0.79 C2.09416826,1.42 1.8833652,2.16 1.8833652,2.94 C1.8833652,4.43 2.63623327,5.75 3.80066922,6.5 C3.08795411,6.5 2.42543021,6.3 1.84321224,6 C1.84321224,6 1.84321224,6 1.84321224,6.03 C1.84321224,8.11 3.32887189,9.85 5.29636711,10.24 C4.93499044,10.34 4.55353728,10.39 4.16204589,10.39 C3.89101338,10.39 3.61998088,10.36 3.35898662,10.31 C3.90105163,12 5.47705545,13.26 7.37428298,13.29 C5.90869981,14.45 4.05162524,15.13 2.02390057,15.13 C1.68260038,15.13 1.34130019,15.11 1,15.07 C2.90726577,16.29 5.17590822,17 7.60516252,17 C15.5152964,17 19.8618547,10.46 19.8618547,4.79 C19.8618547,4.6 19.8618547,4.42 19.8518164,4.23 C20.6950287,3.63 21.417782,2.87 22,2 Z"></path>
    <path id="facebook" d="M11,0 L11,4 L9,4 C8.31,4 8,4.81 8,5.5 L8,8 L11,8 L11,12 L8,12 L8,20 L4,20 L4,12 L1,12 L1,8 L4,8 L4,4 C4,1.790861 5.790861,4.4408921e-16 8,0 L11,0 Z"></path>
    <path id="copy" d="M18,20 L7,20 L7,6 L18,6 L18,20 Z M18,4 L7,4 C5.8954305,4 5,4.8954305 5,6 L5,20 C5,21.1045695 5.8954305,22 7,22 L18,22 C19.1045695,22 20,21.1045695 20,20 L20,6 C20,4.8954305 19.1045695,4 18,4 Z M15,0 L3,0 C1.8954305,-1.11022302e-16 1,0.8954305 1,2 L1,16 L3,16 L3,2 L15,2 L15,0 Z"></path>
    <polygon id="close" points="13.8571429 10 21 17.1428571 18.1428571 20 11 12.8571429 3.85714286 20 1 17.1428571 8.14285714 10 1 2.85714286 3.85714286 0 11 7.14285714 18.1428571 0 21 2.85714286"></polygon>
</svg>
