<?xml version="1.0" encoding="UTF-8"?>
<svg width="22px" height="31px" viewBox="0 0 22 31" version="1.1" xmlns="http://www.w3.org/2000/svg" xmlns:xlink="http://www.w3.org/1999/xlink">
    <!-- Generator: Sketch 48.2 (47327) - http://www.bohemiancoding.com/sketch -->
    <title>icon-placemark</title>
    <desc>Created with Sketch.</desc>
    <defs></defs>
    <g id="04-Tablet-Portrait-768-Three-Locations" stroke="none" stroke-width="1" fill="none" fill-rule="evenodd" transform="translate(-52.000000, -2753.000000)">
        <g id="Bar-and-Line-Graphs" transform="translate(0.000000, 2140.000000)" fill="#E04119">
            <g id="Bar-Graph">
                <g id="City-Legend" transform="translate(1.000000, 579.000000)">
                    <g id="Allentown" transform="translate(51.000000, 34.000000)">
                        <g id="icon-placemark">
                            <path d="M19.2140466,18.5277298 L10.6905434,31 L2.15337183,18.5082144 C-1.07672461,14.1443048 -0.613862167,6.9752046 3.14495365,3.16717097 C5.16042448,1.12497208 7.84005632,0 10.6905434,0 C13.5410305,0 16.2206624,1.12497208 18.2367545,3.16717097 C21.9955703,6.9752046 22.4584328,14.1443048 19.2140466,18.5277298 Z M10.6551724,15.3103448 C13.2220345,15.3103448 15.3103448,13.2220345 15.3103448,10.6551724 C15.3103448,8.08831034 13.2220345,6 10.6551724,6 C8.08831034,6 6,8.08831034 6,10.6551724 C6,13.2220345 8.08831034,15.3103448 10.6551724,15.3103448 Z" id="Combined-Shape"></path>
                        </g>
                    </g>
                </g>
            </g>
        </g>
    </g>
</svg>