<?xml version="1.0" encoding="UTF-8"?>
<svg width="109px" height="31px" viewBox="0 0 109 31" version="1.1" xmlns="http://www.w3.org/2000/svg" xmlns:xlink="http://www.w3.org/1999/xlink">
    <!-- Generator: Sketch 48.2 (47327) - http://www.bohemiancoding.com/sketch -->
    <title>PUsig2-ww-ws</title>
    <desc>Created with Sketch.</desc>
    <defs></defs>
    <g id="Page-1" stroke="none" stroke-width="1" fill="none" fill-rule="evenodd">
        <g id="PUsig2-ww-ws" fill="#FFFFFF">
            <path d="M34.974,7.783 C34.974,6.964 34.505,6.203 33.808,5.886 C33.448,5.734 32.815,5.636 31.856,5.636 C31.017,5.636 29.708,5.701 29.132,5.701 C28.728,5.701 28.116,5.658 27.778,5.658 C27.745,5.712 27.724,5.789 27.724,5.832 C27.724,5.875 27.724,5.996 27.757,6.05 C27.964,6.115 28.302,6.169 28.521,6.224 C28.704,6.388 28.749,6.529 28.813,6.845 C28.847,7.228 28.868,7.707 28.868,8.535 C28.868,10.835 28.858,12.046 28.825,12.308 C28.782,12.634 28.564,12.972 28.204,13.082 C28.04,13.115 27.8,13.169 27.571,13.191 C27.562,13.246 27.55,13.322 27.55,13.419 C27.55,13.507 27.562,13.517 27.581,13.572 C27.931,13.572 28.956,13.529 29.349,13.529 C30.319,13.529 31.312,13.572 31.714,13.572 L31.987,13.572 C32.021,13.529 32.021,13.453 32.021,13.398 C32.021,13.332 32.021,13.246 31.997,13.201 C31.671,13.158 31.181,13.093 30.974,12.853 C30.864,12.722 30.755,12.537 30.755,12.208 L30.722,9.812 C31.376,9.855 32.073,9.876 32.456,9.876 C32.956,9.876 33.382,9.789 33.72,9.681 C34.493,9.386 34.974,8.623 34.974,7.783 M33.023,7.74 C33.023,8.294 32.825,8.787 32.468,9.103 C32.237,9.287 31.878,9.396 31.333,9.396 C31.104,9.396 30.929,9.386 30.864,9.375 C30.776,9.365 30.722,9.353 30.722,9.298 L30.733,6.105 C30.864,6.093 31.05,6.05 31.366,6.05 C32.106,6.05 32.565,6.236 32.782,6.693 C32.935,6.988 33.023,7.359 33.023,7.74 M44.862,13.388 C44.862,13.332 44.841,13.201 44.808,13.158 C44.698,13.158 44.253,13.136 44.089,13.017 C44.034,12.951 43.946,12.82 43.903,12.744 C43.761,12.242 43.599,11.904 43.435,11.49 C43.204,10.945 42.89,10.433 42.628,10.193 C42.528,10.105 42.19,9.962 41.81,9.833 C41.636,9.767 41.493,9.712 41.362,9.658 C41.526,9.625 41.603,9.615 41.81,9.593 C42.616,9.496 42.802,9.353 43.009,9.189 C43.444,8.863 43.685,8.361 43.685,7.773 C43.685,6.89 43.118,6.039 42.321,5.789 C42.06,5.712 41.593,5.667 41.015,5.667 C40.196,5.667 39.052,5.744 38.507,5.744 C38.343,5.744 37.394,5.722 37.013,5.722 C36.849,5.722 36.435,5.701 36.37,5.701 C36.337,5.777 36.315,5.865 36.315,5.908 C36.315,5.951 36.325,6.06 36.337,6.105 C36.522,6.126 36.86,6.169 37.034,6.203 C37.296,6.398 37.384,6.552 37.491,6.791 C37.548,7.14 37.558,8.035 37.558,9.572 C37.558,10.683 37.569,11.97 37.515,12.384 C37.481,12.656 37.384,12.984 37.067,13.115 C36.927,13.136 36.663,13.181 36.446,13.191 C36.413,13.246 36.392,13.355 36.392,13.408 C36.392,13.441 36.413,13.529 36.435,13.583 C36.589,13.583 38.257,13.55 38.604,13.55 C39.302,13.55 39.892,13.583 40.513,13.583 C40.534,13.539 40.556,13.462 40.556,13.419 C40.556,13.343 40.534,13.234 40.513,13.191 C40.294,13.169 40.022,13.103 39.901,13.082 C39.63,12.951 39.433,12.689 39.433,12.308 L39.423,9.789 C39.509,9.779 39.618,9.779 39.706,9.779 C39.847,9.779 40.011,9.8 40.282,9.953 C40.687,10.181 40.884,10.345 41.146,10.748 C41.493,11.292 41.724,12.296 41.831,13.093 C41.864,13.322 41.95,13.517 42.159,13.539 C42.245,13.55 42.823,13.572 43.237,13.572 L44.798,13.572 C44.841,13.529 44.862,13.441 44.862,13.388 M41.7,7.685 C41.7,8.361 41.243,9.136 40.71,9.267 C40.491,9.32 40.218,9.353 39.815,9.353 C39.706,9.353 39.542,9.353 39.411,9.332 L39.399,8.404 L39.399,6.398 C39.399,6.269 39.433,6.191 39.466,6.158 C39.497,6.126 39.694,6.093 39.925,6.093 C40.774,6.093 41.146,6.169 41.45,6.683 C41.624,6.976 41.7,7.314 41.7,7.685 M50.444,13.376 C50.444,13.322 50.433,13.201 50.411,13.158 C50.247,13.148 49.802,13.103 49.604,13.06 C49.431,12.853 49.31,12.613 49.233,12.22 C49.224,11.697 49.212,10.617 49.212,9.605 L49.212,6.921 C49.212,6.626 49.331,6.398 49.409,6.333 C49.616,6.138 50.03,6.093 50.38,6.05 C50.401,6.005 50.411,5.886 50.411,5.843 C50.411,5.777 50.38,5.691 50.356,5.667 L50.04,5.667 C49.583,5.667 48.515,5.722 48.144,5.722 C47.915,5.722 46.847,5.691 46.366,5.679 L46.128,5.679 C46.095,5.722 46.073,5.767 46.073,5.865 C46.073,5.908 46.083,6.017 46.095,6.072 C46.63,6.115 46.868,6.169 46.944,6.224 C47.075,6.322 47.261,6.562 47.306,7.152 C47.315,7.359 47.325,7.806 47.337,8.808 C47.349,9.353 47.358,10.117 47.358,10.748 C47.358,11.064 47.337,11.773 47.325,12.156 C47.306,12.416 47.249,12.667 47.175,12.81 C47.044,12.917 46.911,13.115 46.116,13.169 C46.095,13.212 46.083,13.355 46.083,13.398 C46.083,13.486 46.105,13.529 46.105,13.583 L46.29,13.583 C46.728,13.583 47.817,13.529 48.384,13.529 C48.548,13.529 49.681,13.562 50.04,13.562 L50.401,13.562 C50.433,13.507 50.444,13.419 50.444,13.376 M61.226,5.822 C61.226,5.777 61.214,5.701 61.192,5.667 L60.94,5.667 C60.396,5.667 60.048,5.691 59.065,5.691 C58.728,5.691 58.226,5.667 58.106,5.667 L57.823,5.667 C57.79,5.691 57.778,5.81 57.778,5.853 C57.778,5.908 57.79,5.996 57.835,6.039 C58.009,6.093 58.673,6.169 58.958,6.355 C59.153,6.583 59.239,7.042 59.272,7.468 C59.284,7.63 59.296,7.794 59.296,8.242 L59.296,10.519 C59.296,10.781 59.284,10.869 59.272,10.988 C59.089,10.781 58.825,10.39 58.39,9.898 L54.751,5.865 C54.718,5.822 54.653,5.767 54.587,5.722 C54.499,5.722 54.347,5.712 54.261,5.712 C53.562,5.712 52.298,5.679 52.112,5.679 C52.091,5.722 52.069,5.789 52.069,5.832 C52.069,5.853 52.091,6.005 52.101,6.039 C52.265,6.082 52.624,6.138 52.919,6.453 C53.095,6.65 53.399,6.921 53.497,7.14 C53.53,7.216 53.54,7.335 53.54,7.49 C53.54,8.056 53.509,8.851 53.509,9.615 L53.509,11.828 C53.509,12.187 53.476,12.472 53.442,12.656 C53.214,12.896 52.864,13.07 52.298,13.212 C52.276,13.267 52.255,13.355 52.255,13.408 C52.255,13.441 52.265,13.55 52.286,13.562 L52.493,13.562 C52.712,13.562 53.214,13.529 53.54,13.529 C54.021,13.529 54.347,13.562 54.794,13.562 L55.446,13.562 C55.489,13.55 55.501,13.419 55.501,13.376 C55.501,13.332 55.489,13.246 55.468,13.201 C55.087,13.103 54.532,13.017 54.161,12.525 C54.087,12.363 54.021,11.556 54.021,11.173 C54.021,10.826 54.009,10.345 54.009,9.703 C54.009,8.839 54.021,8.087 54.03,7.707 C54.097,7.783 54.173,7.88 54.228,7.947 L59.263,13.605 C59.317,13.66 59.513,13.669 59.567,13.669 C59.622,13.669 59.655,13.669 59.698,13.648 C59.72,13.595 59.796,13.419 59.796,13.158 C59.796,12.843 59.784,12.515 59.784,12.351 L59.784,7.806 C59.784,6.443 60.429,6.06 61.181,6.029 C61.214,5.974 61.226,5.875 61.226,5.822 M69.708,12.046 C69.675,11.949 69.587,11.785 69.337,11.785 C69.313,11.785 69.28,11.794 69.261,11.794 C68.604,12.722 67.886,13.07 67.067,13.07 C65.935,13.07 65.128,12.308 64.866,11.63 C64.724,11.273 64.528,10.488 64.528,9.648 C64.528,8.851 64.647,8.208 64.854,7.74 C65.335,6.476 66.032,6.082 66.884,6.082 C67.593,6.082 68.181,6.486 68.628,7.064 C68.814,7.314 69.009,7.806 69.183,8.384 C69.228,8.394 69.325,8.416 69.423,8.416 C69.487,8.416 69.642,8.361 69.685,8.318 C69.675,8.197 69.565,7.359 69.565,7.097 C69.565,6.769 69.651,6.236 69.651,6.029 C69.587,5.962 69.368,5.919 69.228,5.908 C69.063,6.029 69.009,6.169 68.856,6.355 C68.245,5.919 67.679,5.582 66.437,5.582 C65.292,5.582 64.386,5.974 63.698,6.66 C62.946,7.402 62.532,8.427 62.532,9.734 C62.532,11.13 63.122,12.275 64.069,12.994 C64.671,13.431 65.554,13.726 66.61,13.726 C67.94,13.726 68.911,13.224 69.401,12.558 C69.597,12.296 69.618,12.232 69.708,12.046 M78.931,11.664 C78.931,11.511 78.931,11.447 78.919,11.349 C78.864,11.316 78.843,11.316 78.755,11.316 C78.679,11.316 78.593,11.316 78.515,11.337 C78.146,12.177 77.61,12.832 77.315,13.005 C77.153,13.103 76.901,13.125 76.497,13.125 L75.605,13.125 C75.257,13.125 74.983,13.093 74.886,13.07 C74.722,13.039 74.548,12.777 74.472,12.603 C74.394,12.416 74.351,12.416 74.351,11.916 L74.351,9.527 L74.755,9.527 C74.862,9.527 75.126,9.55 75.419,9.681 C75.692,9.8 75.802,9.962 75.909,10.138 C76.009,10.291 76.073,10.89 76.095,11.042 C76.149,11.076 76.292,11.085 76.38,11.085 C76.466,11.085 76.521,11.076 76.597,11.033 C76.597,10.738 76.53,9.943 76.53,9.505 C76.53,8.96 76.606,8.208 76.64,7.816 C76.597,7.794 76.53,7.773 76.423,7.773 C76.347,7.773 76.204,7.773 76.14,7.806 C76.106,7.957 75.985,8.416 75.964,8.449 C75.802,8.722 75.517,8.929 75.224,9.015 C75.026,9.07 74.743,9.103 74.591,9.103 L74.362,9.103 L74.362,8.087 C74.362,7.042 74.384,6.705 74.394,6.507 C74.405,6.376 74.427,6.236 74.439,6.138 C74.536,6.126 74.591,6.115 75.093,6.115 C75.724,6.115 76.019,6.126 76.116,6.126 C76.423,6.148 76.651,6.212 76.815,6.345 C77.229,6.66 77.546,7.162 77.86,7.697 C77.927,7.718 78.036,7.718 78.091,7.718 C78.155,7.718 78.167,7.697 78.255,7.652 C78.255,6.988 78.21,6.126 78.189,5.853 C78.177,5.744 78.155,5.712 77.938,5.712 C77.851,5.712 77.437,5.691 77.001,5.691 C76.38,5.691 76.128,5.701 75.179,5.701 C74.667,5.701 73.608,5.712 73.161,5.712 C72.509,5.712 71.952,5.691 71.669,5.691 L71.298,5.691 C71.265,5.734 71.243,5.822 71.243,5.865 C71.243,5.919 71.265,6.039 71.298,6.082 C71.429,6.126 71.94,6.115 72.095,6.203 C72.247,6.333 72.388,6.388 72.485,6.912 C72.509,7.14 72.519,7.773 72.519,8.275 L72.519,10.519 C72.519,10.978 72.509,11.642 72.497,11.916 C72.476,12.339 72.323,12.853 72.259,12.951 C72.159,13.027 71.712,13.093 71.276,13.115 C71.243,13.181 71.222,13.289 71.222,13.355 C71.222,13.419 71.243,13.496 71.276,13.55 L71.636,13.55 C71.985,13.55 73.271,13.517 73.565,13.517 C73.839,13.517 74.362,13.539 74.993,13.539 C75.343,13.539 76.368,13.605 78.569,13.605 C78.657,13.605 78.755,13.617 78.864,13.583 C78.898,13.529 78.898,13.507 78.907,13.408 C78.931,13.191 78.931,12.546 78.931,11.664 M88.327,8.121 L88.327,5.898 C88.327,5.734 88.263,5.691 88.099,5.691 C87.771,5.691 86.05,5.734 84.306,5.734 C82.952,5.734 81.829,5.712 81.22,5.712 L80.411,5.712 C80.271,5.712 80.228,5.744 80.228,5.898 L80.228,7.98 C80.271,8.013 80.347,8.023 80.401,8.023 C80.444,8.023 80.599,8.023 80.642,8.001 C81.132,7.009 81.591,6.476 82.169,6.181 C82.495,6.148 83.138,6.138 83.312,6.138 C83.323,6.257 83.335,6.638 83.345,7.097 C83.356,7.88 83.356,8.22 83.356,10.072 C83.356,11.675 83.345,12.396 83.323,12.57 C83.28,12.875 83.335,13.103 82.026,13.158 C81.993,13.234 81.993,13.322 81.993,13.408 C81.993,13.453 81.993,13.539 82.005,13.583 L82.429,13.583 C82.833,13.583 83.78,13.539 84.175,13.539 C84.489,13.539 85.505,13.572 86.169,13.572 L86.474,13.572 C86.507,13.517 86.507,13.398 86.507,13.343 C86.507,13.279 86.495,13.201 86.464,13.148 C86.343,13.148 85.646,13.169 85.341,12.941 C85.308,12.82 85.241,12.503 85.241,12.123 C85.231,10.945 85.22,10.498 85.22,9.712 C85.22,8.699 85.231,8.013 85.231,6.126 C85.384,6.126 85.733,6.115 86.06,6.126 C86.735,6.312 87.064,6.562 87.356,6.955 C87.542,7.205 87.739,7.63 87.935,8.144 C88.001,8.164 88.056,8.164 88.12,8.164 C88.163,8.164 88.306,8.144 88.327,8.121 M97.909,9.496 C97.909,7.968 97.233,6.802 95.97,6.105 C95.294,5.734 94.618,5.548 93.897,5.548 C92.308,5.548 90.868,6.496 90.224,7.576 C89.81,8.251 89.593,8.994 89.593,9.779 C89.593,11.033 90.202,12.265 91.151,12.972 C91.87,13.496 92.688,13.757 93.638,13.757 C94.216,13.757 94.761,13.648 95.294,13.441 C95.894,13.212 96.405,12.853 96.81,12.406 C97.519,11.63 97.909,10.64 97.909,9.496 M95.937,9.287 C95.937,10.935 95.479,12.384 94.858,12.896 C94.542,13.158 94.149,13.289 93.702,13.289 C93.093,13.289 92.558,13.05 92.253,12.558 C91.839,11.927 91.608,10.748 91.608,9.724 C91.608,8.208 92.001,7.021 92.698,6.443 C93.069,6.138 93.45,6.017 93.833,6.017 C94.423,6.017 94.989,6.3 95.315,6.769 C95.729,7.335 95.937,8.154 95.937,9.287 M108.431,5.822 C108.431,5.777 108.421,5.701 108.397,5.667 L108.147,5.667 C107.603,5.667 107.255,5.691 106.272,5.691 C105.935,5.691 105.433,5.667 105.313,5.667 L105.03,5.667 C104.997,5.691 104.985,5.81 104.985,5.853 C104.985,5.908 104.997,5.996 105.04,6.039 C105.216,6.093 105.88,6.169 106.163,6.355 C106.36,6.583 106.446,7.042 106.479,7.468 C106.489,7.63 106.501,7.794 106.501,8.242 L106.501,10.519 C106.501,10.781 106.489,10.869 106.479,10.988 C106.294,10.781 106.032,10.39 105.597,9.898 L101.954,5.865 C101.923,5.822 101.856,5.767 101.792,5.722 C101.704,5.722 101.552,5.712 101.466,5.712 C100.767,5.712 99.503,5.679 99.317,5.679 C99.296,5.722 99.272,5.789 99.272,5.832 C99.272,5.853 99.296,6.005 99.306,6.039 C99.47,6.082 99.829,6.138 100.124,6.453 C100.298,6.65 100.603,6.921 100.7,7.14 C100.733,7.216 100.745,7.335 100.745,7.49 C100.745,8.056 100.712,8.851 100.712,9.615 L100.712,11.828 C100.712,12.187 100.681,12.472 100.647,12.656 C100.419,12.896 100.069,13.07 99.503,13.212 C99.479,13.267 99.46,13.355 99.46,13.408 C99.46,13.441 99.47,13.55 99.491,13.562 L99.698,13.562 C99.917,13.562 100.419,13.529 100.745,13.529 C101.226,13.529 101.552,13.562 101.999,13.562 L102.653,13.562 C102.696,13.55 102.708,13.419 102.708,13.376 C102.708,13.332 102.696,13.246 102.675,13.201 C102.294,13.103 101.737,13.017 101.366,12.525 C101.29,12.363 101.226,11.556 101.226,11.173 C101.226,10.826 101.214,10.345 101.214,9.703 C101.214,8.839 101.226,8.087 101.235,7.707 C101.302,7.783 101.378,7.88 101.433,7.947 L106.47,13.605 C106.522,13.66 106.72,13.669 106.774,13.669 C106.827,13.669 106.86,13.669 106.905,13.648 C106.927,13.595 107.003,13.419 107.003,13.158 C107.003,12.843 106.991,12.515 106.991,12.351 L106.991,7.806 C106.991,6.443 107.636,6.06 108.388,6.029 C108.421,5.974 108.431,5.875 108.431,5.822" id="Fill-1"></path>
            <path d="M36.206,18.046 C36.206,18.003 36.185,17.938 36.151,17.905 L35.837,17.905 C35.497,17.905 35.04,17.927 34.647,17.927 C34.212,17.927 33.722,17.905 33.403,17.905 L33.013,17.905 C32.979,17.972 32.968,17.993 32.968,18.046 C32.968,18.091 32.979,18.136 33.001,18.188 C33.046,18.188 33.841,18.2 33.981,18.395 C34.103,18.56 34.364,18.962 34.407,19.202 C34.429,19.312 34.495,19.759 34.495,20.401 C34.495,21.329 34.495,21.95 34.483,22.276 C34.462,22.888 34.396,23.368 34.286,23.728 C33.981,24.677 33.274,25.145 32.151,25.145 C31.671,25.145 31.257,25.046 30.874,24.872 C30.165,24.522 29.827,23.858 29.817,23.497 L29.763,20.228 L29.753,18.897 C29.753,18.647 30.067,18.417 30.177,18.286 C30.265,18.243 30.743,18.2 31.017,18.179 C31.05,18.112 31.071,18.079 31.071,18.026 C31.071,17.972 31.038,17.917 30.995,17.884 L30.581,17.895 C30.177,17.905 29.644,17.917 29.306,17.917 C28.782,17.917 28.378,17.905 28.052,17.905 L27.595,17.905 C27.55,17.938 27.538,18.003 27.538,18.058 C27.538,18.112 27.55,18.155 27.583,18.188 C27.931,18.233 28.159,18.265 28.313,18.298 C28.497,18.407 28.63,18.593 28.694,18.778 C28.706,18.919 28.728,19.269 28.728,19.954 L28.728,22.571 C28.728,23.247 28.761,23.728 28.837,24.032 C28.978,24.601 29.282,25.046 29.784,25.374 C30.319,25.724 30.983,25.897 31.78,25.897 C32.511,25.897 33.132,25.743 33.655,25.45 C34.2,25.155 34.538,24.677 34.733,23.999 C34.843,23.597 34.909,23.159 34.909,22.702 L34.909,20.608 C34.909,20.218 34.931,19.726 34.931,19.53 C34.942,18.94 35.095,18.593 35.259,18.331 C35.433,18.276 35.585,18.243 36.163,18.179 C36.185,18.136 36.206,18.103 36.206,18.046 M46.302,17.993 C46.302,17.948 46.29,17.917 46.269,17.884 L46.019,17.884 C45.474,17.884 45.233,17.905 44.253,17.905 C43.913,17.905 43.413,17.884 43.294,17.884 L43.009,17.884 C42.978,17.905 42.966,17.981 42.966,18.026 C42.966,18.079 42.978,18.103 43.021,18.145 C43.194,18.2 43.86,18.276 44.144,18.462 C44.339,18.69 44.427,19.147 44.46,19.573 C44.47,19.737 44.481,19.901 44.481,20.349 L44.481,23.585 C44.481,23.847 44.47,23.935 44.46,24.054 C44.274,23.847 43.958,23.444 43.532,22.942 L39.368,18.079 C39.335,18.036 39.271,17.981 39.204,17.938 C39.116,17.938 39.009,17.927 38.921,17.927 C38.224,17.927 37.612,17.895 37.427,17.895 C37.405,17.938 37.396,17.96 37.396,18.003 C37.396,18.026 37.405,18.112 37.415,18.145 C37.579,18.188 38.06,18.243 38.257,18.45 C38.431,18.647 38.692,18.876 38.79,19.095 C38.823,19.169 38.835,19.29 38.835,19.442 C38.835,20.011 38.802,21.044 38.802,21.81 L38.802,24.13 C38.802,24.491 38.769,24.774 38.735,24.958 C38.507,25.198 38.157,25.374 37.591,25.515 C37.569,25.569 37.548,25.593 37.548,25.645 C37.548,25.679 37.558,25.743 37.579,25.755 L37.786,25.755 C38.005,25.755 38.507,25.724 38.835,25.724 C39.313,25.724 39.53,25.755 39.978,25.755 L40.634,25.755 C40.677,25.743 40.687,25.657 40.687,25.612 C40.687,25.569 40.677,25.548 40.653,25.503 C40.272,25.405 39.718,25.319 39.347,24.829 C39.271,24.665 39.204,23.835 39.204,23.454 C39.204,23.106 39.192,22.538 39.192,21.895 C39.192,21.034 39.204,19.847 39.216,19.464 C39.28,19.54 39.38,19.661 39.454,19.747 L44.622,25.8 C44.677,25.853 44.698,25.864 44.755,25.864 C44.808,25.864 44.774,25.864 44.819,25.843 C44.841,25.788 44.874,25.612 44.874,25.353 C44.874,25.036 44.862,24.708 44.862,24.544 L44.862,19.911 C44.862,18.55 45.507,18.167 46.259,18.136 C46.29,18.079 46.302,18.046 46.302,17.993 M51.229,25.612 C51.229,25.56 51.22,25.503 51.196,25.46 C51.032,25.45 50.587,25.405 50.39,25.362 C50.216,25.155 50.097,24.915 50.019,24.522 C50.009,23.999 49.997,22.812 49.997,21.798 L49.997,19.028 C49.997,18.733 50.116,18.505 50.194,18.44 C50.401,18.243 50.815,18.2 51.163,18.155 C51.187,18.112 51.196,18.058 51.196,18.015 C51.196,17.948 51.163,17.905 51.142,17.884 L50.825,17.884 C50.368,17.884 49.714,17.938 49.343,17.938 C49.114,17.938 48.46,17.905 47.981,17.895 L47.741,17.895 C47.708,17.938 47.687,17.938 47.687,18.036 C47.687,18.079 47.696,18.124 47.708,18.179 C48.241,18.222 48.481,18.276 48.558,18.331 C48.688,18.429 48.874,18.669 48.919,19.259 C48.929,19.464 48.94,20.02 48.95,21.024 C48.962,21.569 48.974,22.31 48.974,22.942 C48.974,23.259 48.95,24.075 48.94,24.458 C48.919,24.72 48.864,24.97 48.786,25.112 C48.657,25.222 48.526,25.417 47.729,25.472 C47.708,25.515 47.696,25.593 47.696,25.636 C47.696,25.724 47.72,25.724 47.72,25.776 L47.903,25.776 C48.341,25.776 49.017,25.724 49.583,25.724 C49.747,25.724 50.466,25.755 50.825,25.755 L51.187,25.755 C51.22,25.7 51.229,25.657 51.229,25.612 M60.778,18.015 C60.778,17.972 60.767,17.905 60.724,17.895 L60.353,17.895 C60.091,17.895 59.677,17.917 59.491,17.917 C58.608,17.917 58.292,17.862 58.161,17.862 L57.966,17.862 C57.942,17.917 57.909,17.948 57.909,18.003 C57.909,18.046 57.933,18.079 57.933,18.124 C58.204,18.155 58.444,18.21 58.685,18.286 C58.815,18.417 58.958,18.681 58.958,18.974 C58.958,19.083 58.849,19.595 58.694,19.966 L56.94,24.282 L54.784,18.821 C54.815,18.56 54.957,18.31 55.142,18.21 C55.327,18.188 55.556,18.124 55.851,18.124 C55.872,18.079 55.894,18.015 55.894,17.972 C55.894,17.927 55.884,17.862 55.839,17.851 L55.565,17.851 C55.229,17.851 54.718,17.895 54.14,17.895 C53.89,17.895 53.399,17.872 52.919,17.872 L52.493,17.872 C52.472,17.917 52.45,17.938 52.45,18.003 C52.45,18.069 52.462,18.091 52.483,18.136 C52.788,18.21 53.083,18.331 53.399,18.505 C53.606,18.812 54.054,19.911 54.294,20.489 L55.196,22.669 C55.948,24.479 56.396,25.69 56.45,25.897 C56.505,25.931 56.45,25.962 56.548,25.962 C56.646,25.962 56.636,25.94 56.657,25.886 L59.47,19.126 C59.567,18.888 59.72,18.657 59.862,18.505 C60.036,18.31 60.396,18.233 60.733,18.155 C60.745,18.112 60.778,18.069 60.778,18.015 M68.845,23.968 C68.845,23.815 68.845,23.749 68.835,23.651 C68.78,23.618 68.759,23.618 68.671,23.618 C68.595,23.618 68.606,23.618 68.528,23.64 C68.288,24.437 67.876,25.024 67.405,25.308 C67.243,25.405 66.948,25.429 66.479,25.429 L65.259,25.429 C64.878,25.417 64.638,25.395 64.538,25.374 C64.376,25.341 64.2,25.079 64.126,24.905 C64.048,24.72 64.005,24.653 64.005,24.153 L64.005,21.667 L64.355,21.667 C64.702,21.667 64.985,21.688 65.28,21.819 C65.554,21.938 65.761,22.114 65.868,22.288 C65.968,22.44 66.001,23.04 66.022,23.192 C66.075,23.226 66.108,23.237 66.196,23.237 C66.282,23.237 66.294,23.226 66.37,23.183 C66.37,22.888 66.306,22.093 66.306,21.655 C66.306,21.11 66.382,20.446 66.413,20.054 C66.37,20.032 66.349,20.011 66.239,20.011 C66.163,20.011 66.132,20.011 66.065,20.042 C66.032,20.194 65.944,20.653 65.925,20.687 C65.761,20.958 65.378,21.177 65.085,21.265 C64.888,21.317 64.604,21.351 64.19,21.351 L64.017,21.351 L64.017,20.282 C64.017,19.235 64.038,18.812 64.048,18.614 C64.06,18.483 64.081,18.343 64.093,18.243 C64.19,18.233 64.507,18.222 65.009,18.222 C65.64,18.222 66.108,18.233 66.208,18.233 C66.513,18.255 66.741,18.319 66.905,18.45 C67.438,18.864 67.581,19.138 67.876,19.804 C67.94,19.823 67.95,19.823 68.007,19.823 C68.071,19.823 68.083,19.804 68.169,19.759 C68.169,19.095 68.126,18.343 68.105,18.069 C68.093,17.96 68.071,17.927 67.853,17.927 C67.767,17.927 67.353,17.905 66.917,17.905 C66.294,17.905 66.044,17.917 65.095,17.917 C64.583,17.917 63.679,17.927 63.231,17.927 C62.577,17.927 62.435,17.905 62.151,17.905 L61.78,17.905 C61.747,17.948 61.726,17.993 61.726,18.036 C61.726,18.091 61.747,18.145 61.78,18.188 C61.911,18.233 62.425,18.222 62.577,18.31 C62.729,18.44 62.87,18.474 62.97,18.995 C62.991,19.226 63.003,19.966 63.003,20.468 L63.003,22.714 C63.003,23.171 62.991,23.925 62.979,24.196 C62.958,24.62 62.806,25.155 62.739,25.253 C62.642,25.329 62.194,25.395 61.759,25.417 C61.726,25.483 61.704,25.526 61.704,25.593 C61.704,25.657 61.726,25.69 61.759,25.743 L62.118,25.743 C62.468,25.743 63.341,25.712 63.634,25.712 C63.907,25.712 64.276,25.733 64.909,25.733 C65.259,25.733 66.282,25.8 68.485,25.8 C68.573,25.8 68.671,25.81 68.78,25.776 C68.814,25.724 68.814,25.7 68.823,25.603 C68.845,25.386 68.845,24.851 68.845,23.968 M77.991,25.624 C77.991,25.569 77.972,25.503 77.938,25.46 C77.829,25.46 77.382,25.438 77.218,25.319 C77.163,25.253 77.077,25.122 77.032,25.046 C76.892,24.544 76.739,24.099 76.575,23.685 C76.347,23.14 76.03,22.626 75.769,22.386 C75.671,22.3 75.364,22.157 74.983,22.026 C74.81,21.96 74.667,21.907 74.536,21.853 C74.7,21.819 74.776,21.81 74.983,21.786 C75.692,21.7 75.933,21.546 76.14,21.384 C76.575,21.056 76.858,20.565 76.858,19.978 C76.858,19.095 76.292,18.255 75.495,18.003 C75.233,17.927 74.765,17.884 74.187,17.884 C73.37,17.884 72.759,17.96 72.214,17.96 C72.052,17.96 71.517,17.938 71.136,17.938 C70.972,17.938 70.558,17.917 70.491,17.917 C70.46,17.993 70.437,18.015 70.437,18.058 C70.437,18.103 70.448,18.167 70.46,18.21 C70.644,18.233 70.981,18.276 71.157,18.31 C71.419,18.505 71.507,18.657 71.614,18.897 C71.669,19.247 71.681,20.228 71.681,21.765 C71.681,22.876 71.69,24.272 71.636,24.687 C71.604,24.958 71.507,25.286 71.188,25.417 C71.048,25.438 70.786,25.483 70.567,25.493 C70.534,25.548 70.513,25.593 70.513,25.645 C70.513,25.679 70.534,25.724 70.558,25.776 C70.71,25.776 71.964,25.743 72.312,25.743 C73.011,25.743 73.185,25.776 73.806,25.776 C73.827,25.733 73.851,25.7 73.851,25.657 C73.851,25.581 73.827,25.536 73.806,25.493 C73.589,25.472 73.315,25.405 73.194,25.386 C72.923,25.253 72.728,24.991 72.728,24.61 L72.716,21.886 C72.804,21.874 73.118,21.874 73.206,21.874 C73.501,21.874 73.796,21.895 74.077,22.026 C74.493,22.212 74.886,22.505 75.148,22.909 C75.495,23.454 75.726,24.491 75.835,25.286 C75.866,25.515 75.954,25.712 76.161,25.733 C76.247,25.743 76.38,25.767 76.794,25.767 L77.927,25.767 C77.972,25.724 77.991,25.679 77.991,25.624 M75.702,19.847 C75.702,20.544 75.148,21.329 74.505,21.472 C74.241,21.524 73.86,21.558 73.37,21.558 C73.239,21.558 72.868,21.558 72.704,21.536 L72.694,20.577 L72.694,18.517 C72.694,18.374 72.728,18.298 72.771,18.265 C72.813,18.233 73.261,18.2 73.532,18.2 C74.558,18.2 75.026,18.298 75.397,18.831 C75.605,19.126 75.702,19.464 75.702,19.847 M85.351,23.606 C85.351,22.735 84.96,22.136 84.118,21.688 C83.89,21.558 83.487,21.415 82.909,21.253 C82.243,21.067 81.688,20.849 81.327,20.653 C81.089,20.522 80.685,20.161 80.685,19.464 C80.685,18.767 81.394,18.188 82.222,18.188 C82.876,18.188 83.399,18.517 83.716,18.952 C83.989,19.333 84.087,19.509 84.392,20.194 C84.425,20.206 84.468,20.218 84.501,20.218 C84.599,20.218 84.687,20.161 84.741,20.108 C84.708,19.835 84.653,19.454 84.653,19.126 C84.653,18.843 84.72,18.474 84.753,18.276 C84.663,18.145 84.565,18.124 84.425,18.124 C84.272,18.222 84.13,18.374 83.999,18.517 C83.28,17.938 82.69,17.839 82.146,17.839 C80.806,17.839 79.847,18.733 79.847,19.923 C79.847,20.325 79.987,20.718 80.249,21.122 C80.489,21.46 80.839,21.722 81.308,21.917 C81.622,22.048 83.04,22.474 83.235,22.55 C84.108,22.888 84.437,23.183 84.437,23.956 C84.437,24.337 84.272,24.677 83.956,25.058 C83.673,25.405 83.226,25.569 82.745,25.569 C82.233,25.569 81.351,25.353 80.913,24.763 C80.651,24.425 80.282,23.718 80.173,23.29 C80.097,23.27 80.097,23.27 80.021,23.27 C79.954,23.27 79.878,23.29 79.813,23.335 C79.813,23.478 79.856,24.196 79.856,24.413 C79.856,24.948 79.759,25.21 79.737,25.386 C79.769,25.493 79.954,25.603 80.087,25.603 C80.313,25.405 80.554,25.253 80.632,25.253 C80.696,25.253 80.794,25.286 80.892,25.353 C81.601,25.81 82.19,25.897 82.714,25.897 C84.251,25.897 85.351,25.122 85.351,23.606 M90.737,25.612 C90.737,25.56 90.726,25.503 90.704,25.46 C90.542,25.45 90.095,25.405 89.897,25.362 C89.724,25.155 89.603,24.915 89.526,24.522 C89.517,23.999 89.505,22.812 89.505,21.798 L89.505,19.028 C89.505,18.733 89.626,18.505 89.7,18.44 C89.907,18.243 90.323,18.2 90.671,18.155 C90.692,18.112 90.704,18.058 90.704,18.015 C90.704,17.948 90.671,17.905 90.649,17.884 L90.335,17.884 C89.876,17.884 89.222,17.938 88.851,17.938 C88.622,17.938 87.968,17.905 87.487,17.895 L87.247,17.895 C87.216,17.938 87.194,17.938 87.194,18.036 C87.194,18.079 87.204,18.124 87.216,18.179 C87.751,18.222 87.989,18.276 88.065,18.331 C88.196,18.429 88.382,18.669 88.427,19.259 C88.437,19.464 88.446,20.02 88.458,21.024 C88.47,21.569 88.479,22.31 88.479,22.942 C88.479,23.259 88.458,24.075 88.446,24.458 C88.427,24.72 88.37,24.97 88.296,25.112 C88.163,25.222 88.032,25.417 87.237,25.472 C87.216,25.515 87.204,25.593 87.204,25.636 C87.204,25.724 87.226,25.724 87.226,25.776 L87.411,25.776 C87.849,25.776 88.524,25.724 89.091,25.724 C89.255,25.724 89.974,25.755 90.335,25.755 L90.692,25.755 C90.726,25.7 90.737,25.657 90.737,25.612 M99.798,20.228 L99.798,18.112 C99.798,17.948 99.731,17.905 99.567,17.905 C99.241,17.905 97.735,17.948 95.991,17.948 C94.64,17.948 93.735,17.927 93.124,17.927 L92.317,17.927 C92.177,17.927 92.132,17.96 92.132,18.112 L92.132,20.085 C92.177,20.118 92.21,20.13 92.263,20.13 C92.308,20.13 92.351,20.13 92.394,20.108 C92.819,19.159 93.036,18.657 93.769,18.286 C94.095,18.255 95.239,18.243 95.413,18.243 C95.425,18.364 95.437,18.745 95.446,19.202 C95.458,19.987 95.458,20.413 95.458,22.267 C95.458,23.868 95.446,24.698 95.425,24.872 C95.382,25.177 95.437,25.405 94.128,25.46 C94.095,25.536 94.095,25.56 94.095,25.645 C94.095,25.69 94.095,25.733 94.106,25.776 L94.53,25.776 C94.935,25.776 95.468,25.733 95.86,25.733 C96.177,25.733 96.776,25.767 97.442,25.767 L97.747,25.767 C97.78,25.712 97.78,25.657 97.78,25.603 C97.78,25.536 97.769,25.503 97.735,25.45 C97.616,25.45 96.919,25.472 96.612,25.243 C96.579,25.122 96.515,24.808 96.515,24.425 C96.505,23.247 96.493,22.692 96.493,21.907 C96.493,20.894 96.505,20.118 96.505,18.233 C96.657,18.233 97.464,18.222 97.792,18.233 C98.466,18.417 98.728,18.669 99.022,19.062 C99.284,19.409 99.351,19.726 99.513,20.249 C99.579,20.27 99.61,20.27 99.677,20.27 C99.72,20.27 99.774,20.249 99.798,20.228 M108.604,17.981 C108.604,17.917 108.562,17.895 108.54,17.851 C108.093,17.851 107.505,17.884 107.274,17.884 C106.72,17.884 106.044,17.839 105.749,17.839 C105.716,17.905 105.704,17.917 105.704,17.972 C105.704,18.026 105.716,18.069 105.728,18.103 C106.044,18.167 106.501,18.243 106.589,18.395 C106.665,18.538 106.687,18.647 106.687,18.821 C106.687,18.952 106.677,19.083 106.62,19.226 C106.522,19.497 106.315,19.923 106.022,20.522 C105.521,21.536 105.204,22.167 105.028,22.419 C104.745,21.938 104.114,20.675 103.962,20.349 L103.351,19.019 C103.329,18.974 103.308,18.821 103.308,18.724 C103.308,18.581 103.329,18.483 103.351,18.44 C103.448,18.243 103.786,18.222 104.245,18.167 C104.267,18.112 104.276,18.046 104.276,18.003 C104.276,17.927 104.245,17.948 104.212,17.895 L104.017,17.895 C103.284,17.895 103.503,17.927 102.249,17.927 C101.716,17.927 101.071,17.895 100.985,17.895 C100.94,17.972 100.919,17.981 100.919,18.058 C100.919,18.103 100.931,18.136 100.964,18.188 C101.692,18.364 101.911,18.493 101.987,18.636 L103.896,22.376 C104.081,22.724 104.19,22.997 104.245,23.192 C104.321,23.497 104.333,23.944 104.333,24.501 C104.333,24.97 104.169,25.222 103.983,25.341 C103.907,25.386 103.36,25.46 103.11,25.483 C103.067,25.56 103.056,25.581 103.056,25.636 C103.056,25.69 103.077,25.724 103.089,25.767 C103.646,25.767 104.224,25.755 104.55,25.755 C104.778,25.755 105.128,25.767 105.771,25.776 C106.142,25.788 106.425,25.8 106.62,25.8 C106.644,25.755 106.677,25.712 106.677,25.657 C106.677,25.603 106.665,25.569 106.632,25.515 C106.282,25.472 105.794,25.405 105.685,25.296 C105.509,25.112 105.423,25.024 105.399,24.601 L105.313,22.964 C105.302,22.845 105.347,22.735 105.356,22.702 C105.39,22.583 105.433,22.485 105.476,22.397 L107.155,19.071 C107.308,18.788 107.636,18.474 107.853,18.343 C108.007,18.243 108.345,18.179 108.562,18.124 C108.585,18.069 108.604,18.026 108.604,17.981" id="Fill-2"></path>
            <path d="M9.538,7.062 C9.46,7.068 9.409,7.109 9.386,7.162 L9.065,7.875 C9.065,7.875 9.05,7.886 9.04,7.886 C9.03,7.886 9.019,7.875 9.011,7.853 C9.003,7.828 8.964,7.728 8.88,7.534 L8.776,7.3 C8.739,7.214 8.71,7.158 8.7,7.14 C8.663,7.076 8.616,7.071 8.565,7.062 C8.56,7.054 8.56,7.047 8.56,7.041 C8.56,7.034 8.56,7.029 8.564,7.02 L8.616,7.02 C8.677,7.02 8.728,7.023 8.772,7.023 C8.825,7.023 8.913,7.018 8.972,7.018 L9.007,7.018 C9.013,7.02 9.015,7.032 9.015,7.037 C9.015,7.041 9.015,7.054 9.011,7.06 C8.972,7.064 8.884,7.062 8.884,7.117 C8.884,7.128 8.886,7.15 8.892,7.165 L9.103,7.665 L9.278,7.25 C9.3,7.203 9.302,7.162 9.302,7.14 C9.302,7.093 9.269,7.073 9.181,7.062 C9.179,7.056 9.175,7.048 9.175,7.042 C9.175,7.035 9.179,7.023 9.181,7.018 L9.206,7.018 C9.245,7.018 9.284,7.023 9.372,7.023 C9.388,7.023 9.448,7.02 9.478,7.02 L9.538,7.02 C9.542,7.027 9.546,7.032 9.546,7.039 C9.546,7.044 9.542,7.057 9.538,7.062" id="Fill-3"></path>
            <path d="M10.431,7.862 C10.175,7.862 10.036,7.855 10.001,7.855 C9.974,7.855 9.911,7.853 9.88,7.853 C9.845,7.853 9.763,7.859 9.673,7.859 L9.622,7.857 C9.618,7.85 9.618,7.845 9.618,7.838 C9.618,7.832 9.618,7.822 9.62,7.814 C9.689,7.809 9.737,7.797 9.749,7.787 C9.763,7.77 9.773,7.734 9.776,7.658 C9.776,7.619 9.778,7.576 9.778,7.532 C9.778,7.467 9.776,7.389 9.776,7.294 C9.776,7.229 9.776,7.19 9.776,7.163 C9.774,7.07 9.729,7.07 9.634,7.059 C9.632,7.05 9.63,7.042 9.63,7.037 C9.63,7.032 9.632,7.018 9.638,7.015 L9.685,7.015 C9.716,7.015 9.8,7.017 9.96,7.017 C10.106,7.017 10.249,7.02 10.28,7.02 C10.3,7.02 10.356,7.021 10.368,7.021 C10.388,7.021 10.396,7.023 10.396,7.041 L10.407,7.232 C10.396,7.238 10.394,7.24 10.384,7.24 C10.376,7.24 10.37,7.24 10.364,7.238 C10.308,7.142 10.28,7.124 10.237,7.091 C10.222,7.08 10.198,7.073 10.163,7.07 C10.151,7.07 10.122,7.068 10.05,7.068 C9.991,7.068 9.962,7.07 9.954,7.071 C9.944,7.071 9.946,7.07 9.942,7.103 C9.94,7.124 9.938,7.162 9.938,7.273 L9.938,7.382 L9.968,7.382 C10.005,7.382 10.042,7.378 10.064,7.373 C10.097,7.364 10.132,7.339 10.149,7.312 C10.157,7.302 10.165,7.256 10.169,7.242 C10.175,7.238 10.185,7.236 10.196,7.236 C10.204,7.236 10.212,7.238 10.218,7.243 C10.216,7.277 10.21,7.341 10.21,7.423 C10.21,7.464 10.214,7.554 10.214,7.591 C10.206,7.597 10.202,7.598 10.19,7.598 C10.185,7.598 10.173,7.597 10.167,7.595 C10.159,7.523 10.148,7.474 10.087,7.449 C10.054,7.435 10.026,7.431 9.993,7.431 C9.976,7.431 9.954,7.433 9.937,7.435 L9.937,7.656 C9.937,7.707 9.94,7.738 9.948,7.755 C9.954,7.77 9.974,7.799 9.999,7.802 C10.011,7.804 10.032,7.808 10.077,7.808 L10.198,7.808 C10.229,7.808 10.274,7.804 10.29,7.794 C10.319,7.775 10.398,7.691 10.425,7.614 C10.437,7.609 10.442,7.609 10.45,7.609 C10.458,7.609 10.466,7.611 10.476,7.615 L10.476,7.838 C10.476,7.859 10.462,7.862 10.431,7.862" id="Fill-4"></path>
            <path d="M11.446,7.284 C11.44,7.284 11.433,7.282 11.423,7.281 C11.403,7.229 11.38,7.181 11.36,7.156 C11.325,7.113 11.292,7.084 11.204,7.074 C11.185,7.073 11.138,7.073 11.122,7.073 L11.12,7.445 C11.12,7.503 11.12,7.573 11.122,7.701 C11.124,7.799 11.167,7.799 11.269,7.812 C11.274,7.823 11.276,7.83 11.276,7.836 C11.276,7.843 11.274,7.85 11.271,7.857 L11.233,7.857 C11.175,7.857 11.058,7.853 11.021,7.853 C10.995,7.853 10.866,7.859 10.806,7.859 C10.8,7.85 10.798,7.85 10.798,7.836 C10.798,7.83 10.8,7.823 10.804,7.814 C10.938,7.804 10.952,7.779 10.956,7.736 C10.96,7.708 10.96,7.597 10.96,7.484 L10.96,7.175 C10.96,7.137 10.958,7.098 10.952,7.073 C10.927,7.073 10.845,7.073 10.821,7.082 C10.753,7.107 10.704,7.165 10.651,7.267 C10.646,7.27 10.636,7.27 10.63,7.27 C10.622,7.27 10.614,7.267 10.61,7.261 L10.61,7.044 C10.61,7.025 10.612,7.02 10.636,7.02 C10.655,7.02 10.687,7.021 10.728,7.021 C10.757,7.021 10.88,7.023 11.034,7.023 C11.237,7.023 11.388,7.018 11.427,7.018 C11.446,7.018 11.46,7.018 11.468,7.025 C11.47,7.029 11.468,7.044 11.468,7.056 L11.468,7.273 C11.464,7.281 11.454,7.284 11.446,7.284" id="Fill-5"></path>
            <path d="M9.497,8.606 C9.489,8.606 9.483,8.604 9.472,8.603 C9.454,8.551 9.431,8.503 9.409,8.478 C9.376,8.435 9.341,8.407 9.253,8.396 C9.233,8.395 9.187,8.395 9.171,8.395 L9.169,8.767 C9.169,8.826 9.169,8.895 9.171,9.023 C9.173,9.122 9.218,9.122 9.319,9.134 C9.325,9.145 9.325,9.152 9.325,9.159 C9.325,9.166 9.325,9.172 9.321,9.179 L9.284,9.179 C9.224,9.179 9.106,9.175 9.071,9.175 C9.046,9.175 8.917,9.181 8.855,9.181 C8.851,9.172 8.849,9.172 8.849,9.159 C8.849,9.152 8.851,9.145 8.853,9.136 C8.987,9.126 9.001,9.101 9.007,9.058 C9.009,9.031 9.009,8.919 9.009,8.806 L9.009,8.498 C9.009,8.459 9.009,8.42 9.003,8.395 C8.978,8.395 8.894,8.395 8.87,8.404 C8.802,8.429 8.755,8.487 8.702,8.589 C8.694,8.592 8.685,8.592 8.679,8.592 C8.671,8.592 8.665,8.589 8.659,8.583 L8.659,8.367 C8.659,8.347 8.663,8.342 8.685,8.342 C8.706,8.342 8.735,8.343 8.776,8.343 C8.808,8.343 8.931,8.345 9.085,8.345 C9.286,8.345 9.438,8.34 9.476,8.34 C9.497,8.34 9.511,8.34 9.517,8.347 C9.521,8.351 9.519,8.367 9.519,8.378 L9.519,8.595 C9.513,8.603 9.505,8.606 9.497,8.606" id="Fill-6"></path>
            <path d="M10.462,9.184 C10.208,9.184 10.067,9.177 10.034,9.177 C10.007,9.177 9.944,9.175 9.911,9.175 C9.878,9.175 9.794,9.181 9.706,9.181 L9.655,9.179 C9.651,9.172 9.649,9.167 9.649,9.161 C9.649,9.154 9.649,9.144 9.653,9.136 C9.722,9.131 9.771,9.12 9.78,9.109 C9.796,9.092 9.804,9.056 9.808,8.98 C9.81,8.941 9.812,8.898 9.812,8.854 C9.812,8.79 9.81,8.711 9.81,8.617 C9.81,8.551 9.808,8.512 9.808,8.485 C9.806,8.392 9.763,8.392 9.667,8.381 C9.663,8.373 9.661,8.365 9.661,8.359 C9.661,8.354 9.665,8.34 9.671,8.337 L9.716,8.337 C9.749,8.337 9.831,8.339 9.991,8.339 C10.14,8.339 10.28,8.342 10.313,8.342 C10.331,8.342 10.39,8.343 10.399,8.343 C10.421,8.343 10.429,8.345 10.429,8.363 L10.439,8.554 C10.429,8.56 10.425,8.562 10.415,8.562 C10.409,8.562 10.403,8.562 10.396,8.56 C10.341,8.464 10.313,8.446 10.269,8.414 C10.253,8.402 10.231,8.395 10.196,8.392 C10.185,8.392 10.155,8.39 10.081,8.39 C10.024,8.39 9.993,8.392 9.987,8.393 C9.976,8.393 9.978,8.392 9.974,8.425 C9.974,8.446 9.972,8.484 9.972,8.595 L9.972,8.705 L9.999,8.705 C10.038,8.705 10.075,8.701 10.095,8.695 C10.13,8.686 10.163,8.662 10.183,8.634 C10.188,8.625 10.198,8.579 10.2,8.564 C10.208,8.56 10.218,8.558 10.228,8.558 C10.237,8.558 10.245,8.56 10.251,8.565 C10.249,8.599 10.241,8.664 10.241,8.746 C10.241,8.787 10.247,8.876 10.247,8.914 C10.237,8.919 10.235,8.92 10.224,8.92 C10.216,8.92 10.206,8.919 10.198,8.917 C10.19,8.845 10.181,8.796 10.118,8.771 C10.085,8.757 10.058,8.753 10.026,8.753 C10.009,8.753 9.987,8.755 9.97,8.757 L9.97,8.978 C9.97,9.029 9.974,9.06 9.98,9.078 C9.987,9.092 10.007,9.122 10.03,9.125 C10.042,9.126 10.065,9.13 10.108,9.13 L10.231,9.13 C10.263,9.13 10.306,9.126 10.321,9.117 C10.353,9.097 10.431,9.013 10.458,8.936 C10.468,8.931 10.476,8.931 10.483,8.931 C10.489,8.931 10.499,8.933 10.507,8.937 L10.507,9.161 C10.507,9.181 10.493,9.184 10.462,9.184" id="Fill-7"></path>
            <path d="M11.056,9.203 C10.985,9.203 10.907,9.175 10.86,9.152 C10.853,9.148 10.837,9.145 10.829,9.145 C10.819,9.145 10.794,9.158 10.767,9.177 C10.747,9.177 10.724,9.167 10.718,9.152 C10.718,9.134 10.733,9.082 10.733,9.048 C10.733,9.029 10.728,8.934 10.726,8.912 C10.733,8.9 10.749,8.894 10.763,8.894 C10.769,8.894 10.773,8.894 10.776,8.895 C10.794,8.929 10.829,9.021 10.854,9.058 C10.907,9.12 10.985,9.147 11.042,9.147 C11.105,9.147 11.151,9.134 11.179,9.106 C11.218,9.069 11.226,9.044 11.226,9.003 C11.226,8.973 11.22,8.948 11.202,8.927 C11.181,8.9 11.163,8.888 11.114,8.865 C11.077,8.847 10.946,8.815 10.899,8.79 C10.841,8.762 10.812,8.739 10.782,8.707 C10.747,8.662 10.733,8.601 10.733,8.553 C10.733,8.417 10.841,8.317 10.993,8.317 C11.05,8.317 11.128,8.322 11.194,8.375 C11.208,8.359 11.226,8.342 11.243,8.327 C11.269,8.327 11.286,8.34 11.288,8.349 C11.286,8.37 11.274,8.422 11.274,8.464 C11.274,8.487 11.288,8.576 11.288,8.589 C11.278,8.593 11.269,8.601 11.255,8.601 C11.251,8.601 11.245,8.599 11.239,8.597 C11.216,8.556 11.194,8.488 11.169,8.451 C11.13,8.398 11.075,8.378 11.001,8.378 C10.917,8.378 10.849,8.431 10.849,8.503 C10.849,8.574 10.905,8.607 10.952,8.628 C10.987,8.642 11.03,8.659 11.079,8.673 C11.142,8.695 11.189,8.711 11.214,8.725 C11.312,8.775 11.353,8.847 11.353,8.948 C11.353,9.103 11.212,9.203 11.056,9.203" id="Fill-8"></path>
            <path d="M9.837,10.508 C9.581,10.508 9.442,10.501 9.407,10.501 C9.38,10.501 9.317,10.5 9.286,10.5 C9.251,10.5 9.169,10.505 9.079,10.505 L9.028,10.503 C9.024,10.497 9.024,10.492 9.024,10.485 C9.024,10.478 9.024,10.468 9.026,10.46 C9.095,10.456 9.144,10.444 9.155,10.433 C9.169,10.416 9.179,10.38 9.183,10.304 C9.183,10.265 9.185,10.222 9.185,10.178 C9.185,10.114 9.183,10.036 9.183,9.941 C9.183,9.875 9.183,9.836 9.183,9.809 C9.181,9.716 9.136,9.716 9.04,9.706 C9.038,9.697 9.036,9.689 9.036,9.683 C9.036,9.678 9.038,9.665 9.044,9.662 L9.091,9.662 C9.122,9.662 9.206,9.664 9.366,9.664 C9.513,9.664 9.655,9.666 9.687,9.666 C9.706,9.666 9.763,9.667 9.774,9.667 C9.794,9.667 9.802,9.669 9.802,9.687 L9.813,9.878 C9.802,9.884 9.8,9.886 9.79,9.886 C9.782,9.886 9.776,9.886 9.771,9.884 C9.714,9.789 9.687,9.77 9.644,9.738 C9.628,9.726 9.605,9.719 9.569,9.716 C9.558,9.716 9.528,9.714 9.456,9.714 C9.398,9.714 9.368,9.716 9.36,9.717 C9.351,9.717 9.353,9.716 9.349,9.75 C9.347,9.77 9.345,9.808 9.345,9.919 L9.345,10.029 L9.374,10.029 C9.411,10.029 9.448,10.025 9.47,10.019 C9.503,10.01 9.538,9.986 9.556,9.958 C9.563,9.949 9.571,9.903 9.575,9.888 C9.581,9.884 9.591,9.882 9.603,9.882 C9.61,9.882 9.618,9.884 9.624,9.889 C9.622,9.923 9.616,9.988 9.616,10.07 C9.616,10.111 9.62,10.201 9.62,10.238 C9.612,10.244 9.608,10.245 9.597,10.245 C9.591,10.245 9.579,10.244 9.573,10.242 C9.565,10.169 9.554,10.121 9.493,10.095 C9.46,10.082 9.433,10.078 9.399,10.078 C9.382,10.078 9.36,10.08 9.343,10.082 L9.343,10.302 C9.343,10.353 9.347,10.384 9.354,10.402 C9.36,10.416 9.38,10.446 9.405,10.449 C9.417,10.451 9.438,10.455 9.483,10.455 L9.605,10.455 C9.636,10.455 9.681,10.451 9.696,10.441 C9.726,10.421 9.804,10.337 9.831,10.26 C9.843,10.255 9.849,10.255 9.856,10.255 C9.864,10.255 9.872,10.257 9.882,10.261 L9.882,10.485 C9.882,10.505 9.868,10.508 9.837,10.508" id="Fill-9"></path>
            <path d="M11.067,9.706 C10.981,9.708 10.907,9.755 10.907,9.892 L10.905,10.327 C10.905,10.343 10.913,10.466 10.913,10.513 C10.899,10.522 10.886,10.527 10.878,10.527 C10.874,10.527 10.866,10.522 10.856,10.513 L10.261,9.873 L10.267,10.003 L10.269,10.24 C10.269,10.258 10.272,10.302 10.276,10.335 C10.28,10.388 10.296,10.406 10.319,10.425 C10.349,10.451 10.398,10.458 10.433,10.462 C10.437,10.469 10.439,10.476 10.439,10.482 C10.439,10.485 10.437,10.496 10.431,10.503 L10.366,10.503 C10.312,10.503 10.269,10.501 10.212,10.501 C10.175,10.501 10.122,10.505 10.085,10.505 L10.058,10.505 C10.056,10.5 10.056,10.49 10.056,10.486 C10.056,10.482 10.056,10.474 10.06,10.464 C10.103,10.46 10.169,10.441 10.194,10.406 C10.204,10.384 10.208,10.345 10.208,10.304 L10.208,10.001 C10.208,9.953 10.206,9.928 10.204,9.88 C10.202,9.841 10.194,9.812 10.175,9.789 C10.173,9.784 10.153,9.763 10.134,9.745 C10.114,9.728 10.067,9.714 10.038,9.703 C10.034,9.695 10.032,9.685 10.032,9.683 C10.032,9.678 10.034,9.667 10.038,9.662 L10.06,9.662 C10.077,9.662 10.169,9.666 10.239,9.666 L10.28,9.666 C10.288,9.669 10.302,9.678 10.306,9.683 L10.747,10.166 C10.78,10.203 10.823,10.251 10.847,10.283 L10.847,9.935 C10.847,9.888 10.845,9.855 10.843,9.838 C10.839,9.802 10.831,9.772 10.817,9.748 C10.804,9.726 10.722,9.714 10.679,9.706 C10.675,9.697 10.675,9.687 10.675,9.68 C10.675,9.675 10.675,9.669 10.677,9.662 L10.702,9.662 C10.743,9.662 10.81,9.667 10.851,9.667 C10.952,9.667 10.983,9.665 11.034,9.665 L11.067,9.665 C11.071,9.671 11.071,9.68 11.071,9.685 C11.071,9.689 11.071,9.699 11.067,9.706" id="Fill-10"></path>
            <path d="M13.851,7.059 C13.767,7.062 13.69,7.109 13.69,7.246 L13.69,7.68 C13.69,7.697 13.696,7.82 13.696,7.867 C13.685,7.875 13.669,7.88 13.663,7.88 C13.657,7.88 13.651,7.875 13.64,7.867 L13.044,7.226 L13.052,7.357 L13.054,7.593 C13.054,7.612 13.058,7.656 13.06,7.689 C13.065,7.742 13.081,7.759 13.103,7.779 C13.134,7.804 13.183,7.812 13.216,7.816 C13.22,7.823 13.222,7.83 13.222,7.835 C13.222,7.838 13.22,7.849 13.216,7.857 L13.149,7.857 C13.097,7.857 13.054,7.855 12.995,7.855 C12.958,7.855 12.907,7.859 12.87,7.859 L12.843,7.859 C12.841,7.853 12.839,7.843 12.839,7.839 C12.839,7.835 12.839,7.828 12.845,7.818 C12.886,7.814 12.952,7.794 12.978,7.759 C12.989,7.738 12.991,7.699 12.991,7.658 L12.991,7.355 C12.991,7.306 12.991,7.282 12.989,7.234 C12.987,7.195 12.978,7.166 12.96,7.142 C12.956,7.137 12.938,7.117 12.917,7.098 C12.899,7.082 12.851,7.068 12.821,7.056 C12.819,7.048 12.817,7.039 12.817,7.037 C12.817,7.032 12.819,7.021 12.821,7.015 L12.845,7.015 C12.86,7.015 12.952,7.02 13.023,7.02 L13.064,7.02 C13.071,7.023 13.085,7.032 13.091,7.037 L13.532,7.519 C13.565,7.556 13.608,7.605 13.632,7.636 L13.632,7.289 C13.632,7.242 13.628,7.208 13.626,7.192 C13.624,7.156 13.614,7.125 13.601,7.101 C13.587,7.08 13.505,7.068 13.464,7.059 C13.46,7.05 13.458,7.041 13.458,7.034 C13.458,7.029 13.458,7.023 13.462,7.015 L13.487,7.015 C13.528,7.015 13.595,7.021 13.636,7.021 C13.735,7.021 13.769,7.018 13.819,7.018 L13.851,7.018 C13.854,7.025 13.856,7.034 13.856,7.039 C13.856,7.042 13.854,7.052 13.851,7.059" id="Fill-11"></path>
            <path d="M14.591,7.139 C14.55,7.083 14.499,7.05 14.423,7.05 C14.353,7.05 14.308,7.082 14.267,7.139 C14.216,7.204 14.189,7.306 14.189,7.437 C14.189,7.566 14.216,7.667 14.263,7.733 C14.306,7.794 14.354,7.826 14.429,7.826 C14.519,7.826 14.571,7.784 14.612,7.71 C14.649,7.646 14.667,7.556 14.667,7.44 C14.667,7.3 14.64,7.203 14.591,7.139 Z M14.728,7.755 C14.646,7.836 14.532,7.882 14.427,7.882 C14.327,7.882 14.212,7.839 14.132,7.761 C14.044,7.677 14.005,7.564 14.005,7.44 C14.005,7.32 14.044,7.207 14.132,7.121 C14.226,7.032 14.327,6.995 14.429,6.995 C14.503,6.995 14.571,7.013 14.651,7.057 C14.782,7.14 14.858,7.279 14.858,7.431 C14.858,7.55 14.812,7.669 14.728,7.755 Z" id="Fill-12"></path>
            <path d="M15.927,7.062 C15.851,7.068 15.8,7.109 15.776,7.162 L15.456,7.875 C15.456,7.875 15.44,7.886 15.431,7.886 C15.421,7.886 15.407,7.875 15.401,7.853 C15.394,7.828 15.354,7.728 15.269,7.534 L15.167,7.3 C15.13,7.214 15.101,7.158 15.091,7.14 C15.052,7.076 15.007,7.071 14.956,7.062 C14.948,7.054 14.948,7.047 14.948,7.041 C14.948,7.034 14.948,7.029 14.954,7.02 L15.007,7.02 C15.065,7.02 15.116,7.023 15.161,7.023 C15.214,7.023 15.302,7.018 15.362,7.018 L15.396,7.018 C15.403,7.02 15.405,7.032 15.405,7.037 C15.405,7.041 15.405,7.054 15.401,7.06 C15.36,7.064 15.274,7.062 15.274,7.117 C15.274,7.128 15.274,7.15 15.282,7.165 L15.491,7.665 L15.669,7.25 C15.689,7.203 15.69,7.162 15.69,7.14 C15.69,7.093 15.657,7.073 15.569,7.062 C15.567,7.056 15.565,7.048 15.565,7.042 C15.565,7.035 15.567,7.023 15.569,7.018 L15.595,7.018 C15.634,7.018 15.673,7.023 15.763,7.023 C15.776,7.023 15.839,7.02 15.868,7.02 L15.929,7.02 C15.933,7.027 15.935,7.032 15.935,7.039 C15.935,7.044 15.933,7.057 15.927,7.062" id="Fill-13"></path>
            <path d="M13.575,8.606 C13.567,8.606 13.562,8.604 13.55,8.603 C13.532,8.551 13.509,8.503 13.487,8.478 C13.454,8.435 13.419,8.407 13.331,8.396 C13.312,8.395 13.265,8.395 13.249,8.395 L13.247,8.767 C13.247,8.826 13.247,8.895 13.249,9.023 C13.251,9.122 13.296,9.122 13.398,9.134 C13.403,9.145 13.403,9.152 13.403,9.159 C13.403,9.166 13.403,9.172 13.399,9.179 L13.362,9.179 C13.302,9.179 13.185,9.175 13.149,9.175 C13.124,9.175 12.995,9.181 12.933,9.181 C12.929,9.172 12.927,9.172 12.927,9.159 C12.927,9.152 12.929,9.145 12.931,9.136 C13.065,9.126 13.079,9.101 13.085,9.058 C13.087,9.031 13.087,8.919 13.087,8.806 L13.087,8.498 C13.087,8.459 13.087,8.42 13.081,8.395 C13.056,8.395 12.972,8.395 12.948,8.404 C12.88,8.429 12.833,8.487 12.78,8.589 C12.773,8.592 12.763,8.592 12.757,8.592 C12.749,8.592 12.743,8.589 12.737,8.583 L12.737,8.367 C12.737,8.347 12.741,8.342 12.763,8.342 C12.784,8.342 12.813,8.343 12.854,8.343 C12.886,8.343 13.009,8.345 13.163,8.345 C13.364,8.345 13.517,8.34 13.554,8.34 C13.575,8.34 13.589,8.34 13.595,8.347 C13.599,8.351 13.597,8.367 13.597,8.378 L13.597,8.595 C13.591,8.603 13.583,8.606 13.575,8.606" id="Fill-14"></path>
            <path d="M14.054,8.514 L14.052,8.514 C14.034,8.546 14.003,8.62 13.991,8.65 C13.946,8.759 13.931,8.796 13.923,8.812 L14.175,8.812 C14.155,8.762 14.091,8.607 14.054,8.514 Z M14.587,9.183 L14.521,9.183 C14.478,9.183 14.429,9.177 14.378,9.177 C14.298,9.177 14.196,9.183 14.157,9.183 C14.153,9.179 14.151,9.171 14.151,9.162 C14.151,9.156 14.153,9.148 14.155,9.142 C14.237,9.138 14.271,9.125 14.271,9.091 C14.271,9.078 14.271,9.05 14.245,8.982 C14.22,8.92 14.206,8.892 14.2,8.876 C14.196,8.871 14.194,8.868 14.177,8.868 L13.911,8.868 C13.894,8.888 13.872,8.948 13.849,9.029 C13.843,9.05 13.843,9.07 13.843,9.078 C13.843,9.105 13.868,9.136 13.962,9.138 C13.968,9.148 13.968,9.156 13.968,9.162 C13.968,9.167 13.968,9.174 13.966,9.181 L13.942,9.181 C13.88,9.181 13.862,9.177 13.796,9.177 C13.753,9.177 13.649,9.181 13.614,9.181 C13.612,9.174 13.61,9.171 13.61,9.164 C13.61,9.158 13.61,9.152 13.614,9.142 C13.665,9.131 13.712,9.117 13.735,9.081 C13.749,9.06 13.794,8.982 13.843,8.861 C13.89,8.749 13.946,8.606 13.972,8.546 C14.007,8.473 14.019,8.449 14.03,8.423 C14.048,8.386 14.067,8.349 14.075,8.335 C14.083,8.326 14.101,8.32 14.108,8.32 C14.122,8.32 14.14,8.329 14.146,8.337 C14.153,8.353 14.163,8.37 14.165,8.379 C14.214,8.496 14.253,8.599 14.313,8.744 C14.345,8.817 14.36,8.863 14.394,8.939 C14.417,8.987 14.431,9.023 14.454,9.067 C14.485,9.13 14.536,9.131 14.587,9.144 C14.589,9.15 14.595,9.156 14.595,9.164 C14.595,9.171 14.591,9.175 14.587,9.183 Z" id="Fill-15"></path>
            <path d="M15.892,9.183 L15.55,9.179 L15.456,9.179 C15.452,9.172 15.45,9.162 15.45,9.158 C15.45,9.147 15.452,9.145 15.458,9.136 C15.476,9.134 15.521,9.136 15.542,9.128 C15.577,9.113 15.591,9.079 15.591,9.028 L15.591,8.535 C15.591,8.535 15.591,8.446 15.591,8.42 L15.589,8.42 L15.409,8.814 C15.39,8.857 15.366,8.904 15.347,8.951 C15.306,9.042 15.284,9.106 15.273,9.142 C15.267,9.158 15.253,9.158 15.245,9.158 C15.233,9.158 15.226,9.154 15.22,9.134 C15.196,9.083 15.181,9.05 15.173,9.029 L14.892,8.41 L14.886,8.41 L14.886,8.568 L14.892,8.963 C14.892,9.083 14.954,9.14 15.05,9.14 C15.054,9.147 15.058,9.158 15.058,9.161 C15.058,9.166 15.056,9.174 15.052,9.181 C15.046,9.181 15.026,9.183 15.009,9.183 C14.997,9.183 14.935,9.177 14.845,9.177 C14.819,9.177 14.767,9.179 14.726,9.179 L14.669,9.179 C14.667,9.172 14.665,9.166 14.665,9.159 C14.665,9.156 14.667,9.147 14.669,9.14 C14.692,9.134 14.774,9.115 14.792,9.097 C14.81,9.081 14.825,9.044 14.825,8.961 L14.825,8.528 C14.823,8.458 14.815,8.432 14.782,8.409 C14.769,8.398 14.716,8.392 14.671,8.386 C14.667,8.378 14.665,8.37 14.665,8.363 C14.665,8.357 14.667,8.349 14.671,8.34 C14.704,8.34 14.763,8.343 14.821,8.343 L15.026,8.343 C15.034,8.349 15.038,8.353 15.044,8.365 L15.296,8.936 L15.341,8.822 C15.38,8.73 15.437,8.592 15.517,8.443 C15.534,8.41 15.556,8.368 15.567,8.345 L15.888,8.34 C15.892,8.347 15.896,8.353 15.896,8.361 C15.896,8.37 15.894,8.375 15.89,8.382 C15.854,8.388 15.794,8.388 15.765,8.437 C15.755,8.453 15.749,8.468 15.749,8.538 L15.749,8.945 C15.749,9.101 15.788,9.117 15.806,9.128 C15.815,9.134 15.864,9.14 15.892,9.14 C15.896,9.148 15.897,9.154 15.897,9.162 C15.897,9.174 15.894,9.175 15.892,9.183" id="Fill-16"></path>
            <path d="M13.556,9.93 C13.548,9.93 13.542,9.928 13.53,9.927 C13.513,9.875 13.489,9.828 13.468,9.802 C13.435,9.759 13.399,9.731 13.312,9.72 C13.292,9.719 13.245,9.719 13.229,9.719 L13.228,10.091 C13.228,10.15 13.228,10.219 13.229,10.347 C13.231,10.446 13.276,10.446 13.378,10.458 C13.384,10.469 13.384,10.476 13.384,10.483 C13.384,10.49 13.384,10.497 13.38,10.503 L13.343,10.503 C13.282,10.503 13.165,10.5 13.13,10.5 C13.104,10.5 12.976,10.505 12.913,10.505 C12.909,10.497 12.907,10.497 12.907,10.483 C12.907,10.476 12.909,10.469 12.911,10.46 C13.046,10.451 13.06,10.425 13.065,10.382 C13.067,10.355 13.067,10.244 13.067,10.13 L13.067,9.822 C13.067,9.784 13.067,9.745 13.062,9.719 C13.036,9.719 12.952,9.719 12.929,9.728 C12.86,9.753 12.813,9.811 12.761,9.914 C12.753,9.916 12.743,9.916 12.737,9.916 C12.729,9.916 12.724,9.914 12.718,9.908 L12.718,9.691 C12.718,9.671 12.722,9.666 12.743,9.666 C12.765,9.666 12.794,9.667 12.835,9.667 C12.866,9.667 12.989,9.669 13.144,9.669 C13.345,9.669 13.497,9.665 13.534,9.665 C13.556,9.665 13.569,9.665 13.575,9.671 C13.579,9.675 13.577,9.691 13.577,9.703 L13.577,9.919 C13.571,9.927 13.563,9.93 13.556,9.93" id="Fill-17"></path>
            <path d="M14.604,9.708 C14.528,9.714 14.478,9.755 14.454,9.808 L14.134,10.522 C14.134,10.522 14.118,10.533 14.108,10.533 C14.099,10.533 14.085,10.522 14.079,10.5 C14.071,10.474 14.032,10.375 13.946,10.18 L13.845,9.947 C13.808,9.861 13.778,9.804 13.769,9.787 C13.73,9.722 13.685,9.717 13.634,9.708 C13.626,9.701 13.626,9.694 13.626,9.687 C13.626,9.68 13.626,9.675 13.632,9.666 L13.685,9.666 C13.743,9.666 13.794,9.669 13.839,9.669 C13.892,9.669 13.979,9.665 14.04,9.665 L14.073,9.665 C14.081,9.666 14.083,9.678 14.083,9.683 C14.083,9.687 14.083,9.701 14.079,9.707 C14.038,9.71 13.952,9.708 13.952,9.763 C13.952,9.775 13.952,9.796 13.96,9.811 L14.169,10.311 L14.347,9.896 C14.366,9.849 14.368,9.808 14.368,9.787 C14.368,9.74 14.335,9.719 14.247,9.708 C14.245,9.703 14.243,9.695 14.243,9.689 C14.243,9.681 14.245,9.669 14.247,9.665 L14.273,9.665 C14.312,9.665 14.351,9.669 14.44,9.669 C14.454,9.669 14.517,9.666 14.546,9.666 L14.606,9.666 C14.61,9.673 14.612,9.678 14.612,9.685 C14.612,9.691 14.61,9.704 14.604,9.708" id="Fill-18"></path>
            <path d="M15.909,10.507 L15.569,10.503 L15.474,10.503 C15.47,10.497 15.47,10.486 15.47,10.482 C15.47,10.471 15.47,10.469 15.476,10.46 C15.495,10.458 15.538,10.46 15.562,10.453 C15.595,10.437 15.608,10.403 15.608,10.352 L15.608,9.859 C15.608,9.859 15.61,9.77 15.61,9.745 L15.606,9.745 L15.429,10.138 C15.407,10.181 15.386,10.228 15.364,10.275 C15.325,10.367 15.302,10.43 15.29,10.466 C15.286,10.482 15.273,10.482 15.263,10.482 C15.253,10.482 15.245,10.478 15.237,10.458 C15.216,10.408 15.2,10.375 15.192,10.353 L14.909,9.734 L14.903,9.734 L14.903,9.892 L14.909,10.288 C14.911,10.408 14.972,10.464 15.069,10.464 C15.073,10.471 15.075,10.482 15.075,10.485 C15.075,10.49 15.075,10.499 15.071,10.505 C15.063,10.505 15.046,10.507 15.026,10.507 C15.015,10.507 14.954,10.501 14.864,10.501 C14.837,10.501 14.784,10.503 14.745,10.503 L14.688,10.503 C14.685,10.497 14.683,10.49 14.683,10.483 C14.683,10.48 14.685,10.471 14.688,10.464 C14.71,10.458 14.794,10.439 14.812,10.421 C14.827,10.405 14.843,10.369 14.843,10.286 L14.845,10.086 L14.843,9.852 C14.841,9.783 14.835,9.756 14.8,9.733 C14.786,9.722 14.733,9.716 14.69,9.71 C14.685,9.703 14.683,9.694 14.683,9.687 C14.683,9.681 14.685,9.673 14.69,9.665 C14.722,9.665 14.782,9.667 14.839,9.667 L15.046,9.667 C15.052,9.673 15.058,9.677 15.062,9.689 L15.314,10.26 L15.36,10.146 C15.398,10.054 15.456,9.916 15.536,9.767 C15.552,9.734 15.575,9.692 15.587,9.669 L15.905,9.665 C15.909,9.671 15.915,9.677 15.915,9.685 C15.915,9.694 15.911,9.699 15.907,9.707 C15.874,9.712 15.813,9.712 15.784,9.761 C15.774,9.777 15.767,9.792 15.767,9.862 L15.767,10.269 C15.767,10.425 15.806,10.441 15.825,10.453 C15.833,10.458 15.882,10.464 15.909,10.464 C15.915,10.472 15.917,10.478 15.917,10.486 C15.917,10.499 15.913,10.5 15.909,10.507" id="Fill-19"></path>
            <path d="M22.776,13.735 C22.186,16.375 21.216,18.907 19.901,21.265 L12.167,13.825 L4.44,21.249 C3.064,18.78 2.071,16.146 1.49,13.415 L22.841,13.415 L22.776,13.735 Z M12.165,30.124 C10.237,28.655 8.489,26.962 6.987,25.065 C6.981,25.058 6.976,25.048 6.97,25.04 L12.167,19.985 L17.374,25.05 C17.366,25.058 17.36,25.069 17.353,25.079 C15.854,26.964 14.103,28.653 12.165,30.124 Z M6.767,10.781 L7.236,10.781 L7.236,9.844 L6.767,9.844 L6.767,10.781 Z M6.767,8.331 L7.236,8.331 L7.236,7.395 L6.767,7.395 L6.767,8.331 Z M7.435,6.809 C7.526,6.791 7.798,6.733 7.931,6.705 L7.931,11.274 C7.979,11.378 8.189,11.622 9.144,11.622 L10.353,11.462 L11.276,11.331 C11.894,11.331 12.087,11.659 12.097,11.672 L12.124,11.657 L12.267,11.657 L12.294,11.671 C12.302,11.658 12.493,11.331 13.104,11.331 L14.028,11.461 L15.245,11.622 C16.214,11.622 16.454,11.367 16.479,11.338 L16.497,6.681 C16.624,6.716 16.856,6.781 16.938,6.804 L16.938,11.852 C16.692,11.887 15.913,11.989 15.188,11.989 C14.148,11.989 12.866,11.826 12.853,11.825 L12.741,11.809 C12.741,11.809 12.741,12.07 12.741,12.151 C12.642,12.187 12.427,12.254 12.175,12.254 C11.927,12.254 11.726,12.188 11.632,12.152 C11.632,12.072 11.632,11.809 11.632,11.809 L11.519,11.825 C11.507,11.826 10.222,11.989 9.188,11.989 C8.46,11.989 7.679,11.887 7.435,11.852 L7.435,6.809 Z M8.13,6.191 C8.29,6.271 8.577,6.356 9.144,6.356 L10.362,6.195 L11.284,6.063 C11.892,6.063 12.085,6.386 12.095,6.404 L12.095,11.389 C11.948,11.266 11.7,11.131 11.276,11.131 L10.31,11.267 L9.144,11.422 C8.29,11.422 8.112,11.216 8.11,11.214 C8.11,11.214 8.128,6.532 8.13,6.191 Z M12.294,6.404 C12.302,6.39 12.493,6.063 13.104,6.063 L14.028,6.194 L15.245,6.354 C15.835,6.354 16.136,6.261 16.302,6.181 L16.302,11.265 C16.29,11.24 16.05,11.422 15.245,11.422 L14.071,11.266 L13.104,11.131 C12.687,11.131 12.44,11.265 12.294,11.387 L12.294,6.404 Z M17.138,10.781 L17.617,10.781 L17.617,9.844 L17.138,9.844 L17.138,10.781 Z M17.138,8.331 L17.617,8.331 L17.617,7.395 L17.138,7.395 L17.138,8.331 Z M23.999,5.219 L23.964,4.82 L23.581,4.936 C22.655,5.218 21.689,5.362 20.712,5.362 C17.328,5.362 14.161,3.597 12.448,0.755 L12.171,0.293 L11.892,0.755 C10.179,3.597 7.013,5.362 3.628,5.362 C2.651,5.362 1.687,5.219 0.765,4.938 L0.381,4.822 L0.346,5.221 C0.103,7.984 0.269,10.763 0.838,13.481 C1.435,16.329 2.469,19.073 3.911,21.64 C4.659,22.974 5.523,24.261 6.478,25.468 C8.067,27.478 9.915,29.274 11.97,30.812 L12.164,30.956 L12.358,30.812 C14.425,29.272 16.276,27.479 17.861,25.483 C18.815,24.282 19.678,22.997 20.427,21.661 C21.796,19.228 22.8,16.607 23.411,13.875 C23.411,13.874 23.491,13.481 23.491,13.481 C24.065,10.741 24.235,7.961 23.999,5.219 Z" id="Fill-20"></path>
        </g>
    </g>
</svg>