<?xml version="1.0" encoding="UTF-8"?>
<svg width="30px" height="31px" viewBox="0 0 30 31" version="1.1" xmlns="http://www.w3.org/2000/svg" xmlns:xlink="http://www.w3.org/1999/xlink">
    <!-- Generator: Sketch 46.2 (44496) - http://www.bohemiancoding.com/sketch -->
    <title>icon-search</title>
    <desc>Created with Sketch.</desc>
    <defs></defs>
    <g id="Mobile-Web-v1.2" stroke="none" stroke-width="1" fill="none" fill-rule="evenodd">
        <g id="Mobile-Web---Phone---1st-Filter-Selected" transform="translate(-89.000000, -10.000000)" fill-rule="nonzero" fill="#666666">
            <g id="Mobile-Navigation-Alt" transform="translate(12.000000, 10.000000)">
                <g id="icon-search" transform="translate(92.000000, 15.500000) scale(-1, 1) translate(-92.000000, -15.500000) translate(77.000000, 0.500000)">
                    <path d="M18.3230769,0.184615385 C14.1739614,0.18426332 10.3468087,2.42041203 8.3099346,6.0351463 C6.27306053,9.64988057 6.34276589,14.0818779 8.49230769,17.6307692 L0.9,25.2461538 C-0.183327779,26.3294816 -0.183327779,28.085903 0.9,29.1692308 C1.98332778,30.2525585 3.73974914,30.2525585 4.82307692,29.1692308 L12.4384615,21.5538462 C16.6020634,24.0527013 21.8869259,23.6649559 25.6412283,20.5851716 C29.3955306,17.5053872 30.808952,12.3982983 29.1722705,7.82652273 C27.5355891,3.25474721 23.2020627,0.205047714 18.3461538,0.207692308 L18.3230769,0.184615385 Z M18.3230769,17.6307692 C15.0348585,17.6307692 12.3692308,14.9651415 12.3692308,11.6769231 C12.3692308,8.38870464 15.0348585,5.72307692 18.3230769,5.72307692 C21.6112954,5.72307692 24.2769231,8.38870464 24.2769231,11.6769231 C24.2769231,14.9651415 21.6112954,17.6307692 18.3230769,17.6307692 L18.3230769,17.6307692 Z" id="Shape"></path>
                </g>
            </g>
        </g>
    </g>
</svg>