<?xml version="1.0" encoding="UTF-8"?>
<svg width="44px" height="30px" viewBox="0 0 44 30" version="1.1" xmlns="http://www.w3.org/2000/svg" xmlns:xlink="http://www.w3.org/1999/xlink">
    <!-- Generator: Sketch 46.2 (44496) - http://www.bohemiancoding.com/sketch -->
    <title>icon-logo</title>
    <desc>Created with Sketch.</desc>
    <defs></defs>
    <g id="Mobile-Web-v1.2" stroke="none" stroke-width="1" fill="none" fill-rule="evenodd">
        <g id="Mobile-Web---Phone---1st-Filter-Selected" transform="translate(-12.000000, -11.000000)" fill-rule="nonzero" fill="#666666">
            <g id="Mobile-Navigation-Alt" transform="translate(12.000000, 10.000000)">
                <g id="icon-logo" transform="translate(0.000000, 1.000000)">
                    <rect id="Rectangle-path" x="0" y="25.2133995" width="43.8387097" height="4.35483871" rx="2.17741935"></rect>
                    <path d="M3.01488834,12.4615385 L3.14888337,12.4615385 C3.44263858,12.5728998 3.75112623,12.6406166 4.06451613,12.662531 L4.28784119,12.662531 C4.19231671,12.80919 4.07988259,12.9441109 3.9528536,13.0645161 L3.41687345,13.0645161 L2.99255583,12.5062035 L2.99255583,12.4615385 L3.01488834,12.4615385 M7.41439206,18.1563275 C7.39205955,17.82134 7.07940447,17.5980149 6.92307692,17.4863524 L6.87841191,17.4416873 C6.84090212,17.4159821 6.81644385,17.3752183 6.81141439,17.3300248 L6.81141439,15.8784119 L6.81141439,15.8784119 C6.67741935,14.471464 5.4044665,13.6898263 4.62282878,13.3101737 C4.89081886,12.9975186 5.00248139,12.7295285 4.98014888,12.5062035 C4.94644923,12.2613014 4.73603279,12.0795781 4.48883375,12.0818859 L4.08684864,12.0818859 C3.84154704,12.0555118 3.60106234,11.9953906 3.37220844,11.9032258 C3.19851117,11.8436725 3.00992556,11.8436725 2.83622829,11.9032258 C2.63817724,11.9690064 2.48395916,12.1261918 2.42196449,12.3254604 C2.35996982,12.5247289 2.39779572,12.7416613 2.5235732,12.9081886 L2.83622829,13.3101737 C2.05459057,13.6898263 0.803970223,14.471464 0.669975186,15.8560794 L0.669975186,17.3300248 C0.66494573,17.3752183 0.640487456,17.4159821 0.602977667,17.4416873 L0.558312655,17.4863524 C0.379652605,17.5980149 0.0669975186,17.82134 0.0669975186,18.1563275 C0.0550469429,18.3271758 0.111255676,18.495802 0.223325062,18.6253102 C0.446240849,18.8495985 0.756812935,18.9640198 1.0719603,18.9379653 L6.43176179,18.9379653 C6.74690915,18.9640198 7.05748124,18.8495985 7.28039702,18.6253102 C7.39246641,18.495802 7.44867514,18.3271758 7.43672457,18.1563275" id="Shape"></path>
                    <rect id="Rectangle-path" x="8.57568238" y="9.17866005" width="11.4342432" height="9.77047146"></rect>
                    <rect id="Rectangle-path" x="23.8957816" y="0.0669975186" width="7.05707196" height="7.97717122"></rect>
                    <rect id="Rectangle-path" x="32.1141439" y="11.6129032" width="11.7245658" height="7.32952854"></rect>
                    <path d="M32.1141439,5.0471464 L32.1141439,5.78411911 L37.9652605,5.78411911 L37.9652605,5.0471464 L32.1141439,5.0471464 Z M32.1141439,6.14143921 L32.1141439,10.4962779 C32.1141439,10.5332796 32.1441397,10.5632754 32.1811414,10.5632754 L37.898263,10.5632754 C37.942928,10.5632754 37.9652605,10.5186104 37.9652605,10.4516129 L37.9652605,6.16377171 L32.1141439,6.16377171 L32.1141439,6.14143921 Z" id="Shape"></path>
                    <path d="M21.1488834,9.17866005 L21.1488834,18.9379653 L30.9751861,18.9379653 L30.9751861,9.17866005 L21.1488834,9.17866005 Z M28.0496278,13.9354839 L26.7990074,13.6898263 L26.7990074,16.6153846 C26.7990074,16.7263897 26.70902,16.8163772 26.5980149,16.8163772 L25.5260546,16.8163772 C25.4150495,16.8163772 25.325062,16.7263897 25.325062,16.6153846 L25.325062,13.6674938 L24.0967742,13.9131514 C23.998103,13.9686539 23.8731204,13.9336588 23.8176179,13.8349876 C23.7621153,13.7363164 23.7971104,13.6113338 23.8957816,13.5558313 L25.9280397,11.3449132 C25.9661988,11.2976937 26.0236565,11.2702523 26.0843672,11.2702523 C26.145078,11.2702523 26.2025357,11.2976937 26.2406948,11.3449132 L28.2729529,13.5558313 C28.3321205,13.6298832 28.3380964,13.7332182 28.2878596,13.8135971 C28.2376228,13.893976 28.1421187,13.933886 28.0496278,13.9131514 L28.0496278,13.9354839 Z" id="Shape"></path>
                    <rect id="Rectangle-path" x="18" y="2.94789082" width="4.77915633" height="5.09181141"></rect>
                </g>
            </g>
        </g>
    </g>
</svg>