<?xml version="1.0" encoding="UTF-8"?>
<svg width="30px" height="31px" viewBox="0 0 30 31" version="1.1" xmlns="http://www.w3.org/2000/svg" xmlns:xlink="http://www.w3.org/1999/xlink">
    <!-- Generator: Sketch 46.2 (44496) - http://www.bohemiancoding.com/sketch -->
    <title>icon-menu</title>
    <desc>Created with Sketch.</desc>
    <defs></defs>
    <g id="Mobile-Web-v1.2" stroke="none" stroke-width="1" fill="none" fill-rule="evenodd">
        <g id="Mobile-Web---Phone---1st-Filter-Selected" transform="translate(-278.000000, -10.000000)" fill-rule="nonzero" fill="#666666">
            <g id="Mobile-Navigation-Alt" transform="translate(12.000000, 10.000000)">
                <g id="icon-menu" transform="translate(266.000000, 0.500000)">
                    <path d="M27.0916031,12.6585366 L3.09160305,12.6585366 C1.51145038,12.6585366 0.20610687,13.7560976 0.20610687,15.097561 C0.20610687,16.4390244 1.51145038,17.5365854 3.09160305,17.5365854 L27.0916031,17.5365854 C28.6717557,17.5365854 29.9770992,16.4390244 29.9770992,15.097561 C29.9770992,13.7560976 28.6717557,12.6585366 27.0916031,12.6585366 Z" id="Shape"></path>
                    <path d="M27.0916031,25.097561 L3.09160305,25.097561 C1.51145038,25.097561 0.20610687,26.195122 0.20610687,27.5365854 C0.20610687,28.8780488 1.51145038,29.9756098 3.09160305,29.9756098 L27.0916031,29.9756098 C28.6717557,29.9756098 29.9770992,28.8780488 29.9770992,27.5365854 C29.9770992,26.195122 28.6717557,25.097561 27.0916031,25.097561 Z" id="Shape"></path>
                    <path d="M27.0916031,0.219512195 L3.09160305,0.219512195 C1.51145038,0.219512195 0.20610687,1.31707317 0.20610687,2.65853659 C0.20610687,4 1.51145038,5.09756098 3.09160305,5.09756098 L27.0916031,5.09756098 C28.6717557,5.09756098 29.9770992,4 29.9770992,2.65853659 C29.9770992,1.31707317 28.6717557,0.219512195 27.0916031,0.219512195 Z" id="Shape"></path>
                </g>
            </g>
        </g>
    </g>
</svg>