<?xml version="1.0" encoding="UTF-8"?>
<svg width="32px" height="31px" viewBox="0 0 32 31" version="1.1" xmlns="http://www.w3.org/2000/svg" xmlns:xlink="http://www.w3.org/1999/xlink">
    <!-- Generator: Sketch 46.2 (44496) - http://www.bohemiancoding.com/sketch -->
    <title>icon-layers</title>
    <desc>Created with Sketch.</desc>
    <defs></defs>
    <g id="Mobile-Web-v1.2" stroke="none" stroke-width="1" fill="none" fill-rule="evenodd">
        <g id="Mobile-Web---Phone---1st-Filter-Selected" transform="translate(-154.000000, -10.000000)" fill-rule="nonzero" fill="#666666">
            <g id="Mobile-Navigation-Alt" transform="translate(12.000000, 10.000000)">
                <g id="icon-layers" transform="translate(141.730769, 0.500000)">
                    <path d="M15.8778626,24.5725191 C15.5137135,24.5720736 15.1544719,24.4937505 14.8274809,24.3435115 L5.39847328,19.9694656 L0.415267176,22.259542 C0.303062144,22.2923892 0.226655738,22.3897986 0.226655738,22.5 C0.226655738,22.6102014 0.303062144,22.7076108 0.415267176,22.740458 L15.6824427,29.8396947 C15.8063718,29.8936278 15.9493534,29.8936278 16.0732824,29.8396947 L31.340458,22.740458 C31.452663,22.7076108 31.5290695,22.6102014 31.5290695,22.5 C31.5290695,22.3897986 31.452663,22.2923892 31.340458,22.259542 L26.3816794,19.9465649 L16.9526718,24.3206107 C16.6203417,24.4822159 16.2522145,24.5684958 15.8778626,24.5725191 Z" id="Shape"></path>
                    <path d="M31.4625954,14.8167939 L31.340458,14.7022901 L26.3816794,12.389313 L18.7358779,15.9389313 L16.9526718,16.7633588 C16.2898176,17.0667946 15.5147625,17.0667946 14.8519084,16.7633588 L13.0687023,15.9389313 L5.42290076,12.389313 L0.415267176,14.7251908 L0.293129771,14.8396947 C0.251025796,14.902175 0.240311749,14.978837 0.263825183,15.0493773 C0.287338617,15.1199176 0.342707304,15.1772195 0.415267176,15.2061069 L7.5480916,18.5267176 L15.6824427,22.3053435 C15.8063718,22.3592767 15.9493534,22.3592767 16.0732824,22.3053435 L24.2076336,18.5267176 L31.340458,15.2061069 C31.4207693,15.1787682 31.4824249,15.1172512 31.5065337,15.0404045 C31.5306425,14.9635578 31.5143304,14.8805424 31.4625954,14.8167939 L31.4625954,14.8167939 Z" id="Shape"></path>
                    <path d="M24.2076336,10.9465649 L26.3816794,9.9389313 L31.340458,7.6259542 C31.4130179,7.59706682 31.4683866,7.53976494 31.4919,7.46922464 C31.5154134,7.39868434 31.5046994,7.32202229 31.4625954,7.25954198 L31.340458,7.14503817 L16.0732824,0.0458015267 L15.8778626,5.68434189e-14 L15.6824427,0.0458015267 L0.415267176,7.14503817 L0.293129771,7.25954198 C0.251025796,7.32202229 0.240311749,7.39868434 0.263825183,7.46922464 C0.287338617,7.53976494 0.342707304,7.59706682 0.415267176,7.6259542 L5.3740458,9.9389313 L7.5480916,10.9465649 L7.5480916,10.9465649 L15.1938931,14.4961832 L15.6824427,14.7251908 C15.8063718,14.779124 15.9493534,14.779124 16.0732824,14.7251908 L16.5618321,14.4961832 L24.2076336,10.9465649" id="Shape"></path>
                </g>
            </g>
        </g>
    </g>
</svg>