<?xml version="1.0" encoding="UTF-8"?>
<svg width="25px" height="25px" viewBox="0 0 25 25" version="1.1" xmlns="http://www.w3.org/2000/svg" xmlns:xlink="http://www.w3.org/1999/xlink">
    <!-- Generator: Sketch 46.2 (44496) - http://www.bohemiancoding.com/sketch -->
    <title>icon-close</title>
    <desc>Created with Sketch.</desc>
    <defs></defs>
    <g id="Mobile-Web-v1.2" stroke="none" stroke-width="1" fill="none" fill-rule="evenodd">
        <g id="Mobile-Web---Phone---Hamburger" transform="translate(-281.000000, -12.000000)" fill="#FFFFFF">
            <g id="icon-close" transform="translate(279.000000, 12.000000)">
                <path d="M26.3894602,0.57840617 C25.6182519,-0.192802057 24.3811054,-0.192802057 23.6098972,0.57840617 L14.4839332,9.70437018 L5.35796915,0.57840617 C4.58676093,-0.192802057 3.3496144,-0.192802057 2.57840617,0.57840617 C1.80719794,1.3496144 1.80719794,2.58676093 2.57840617,3.35796915 L11.7043702,12.4839332 L2.57840617,21.6098972 C1.80719794,22.3811054 1.80719794,23.6182519 2.57840617,24.3894602 C2.96401028,24.7750643 3.46208226,24.9678663 3.97622108,24.9678663 C4.4903599,24.9678663 4.98843188,24.7750643 5.37403599,24.3894602 L14.5,15.2634961 L23.625964,24.3894602 C24.0115681,24.7750643 24.5096401,24.9678663 25.0237789,24.9678663 C25.5379177,24.9678663 26.0359897,24.7750643 26.4215938,24.3894602 C27.1928021,23.6182519 27.1928021,22.3811054 26.4215938,21.6098972 L17.2634961,12.4839332 L26.3894602,3.35796915 C27.1606684,2.58676093 27.1606684,1.3496144 26.3894602,0.57840617 Z" id="Shape"></path>
            </g>
        </g>
    </g>
</svg>